<svg id="Layer_1" enable-background="new 0 0 512 512" height="512" viewBox="0 0 512 512" width="512" xmlns="http://www.w3.org/2000/svg"><g id="_x30_2_Nail_polish"><g><g>
<path stroke="white" fill="white" d="m457.2 395.3v81.9c0 19.2-15.6 34.7-34.7 34.7h-174.3c-19.2 0-34.7-15.6-34.7-34.7v-81.7l13.2 61.9c3.9 18.1 20.1 31.2 38.6 31.2h139.9c18.5 0 34.8-13.2 38.7-31.2z"/></g>
<path stroke="white" fill="white" d="m438.3 308.4-39.7-15.7c-7.1-2.8-12-9.9-12-17.7v-10.2h7.1c3 0 5.4-2.4 5.4-5.4s-2.4-5.4-5.4-5.4h-7.1v-16.8h7.1c3 0 5.4-2.4 5.4-5.4s-2.4-5.4-5.4-5.4h-7.1v-24.1c0-3-2.4-5.4-5.4-5.4h-91.7c-3 0-5.4 2.4-5.4 5.4v24.1h-7.1c-3 0-5.4 2.4-5.4 5.4s2.4 5.4 5.4 5.4h7.1v16.8h-7.1c-3 0-5.4 2.4-5.4 5.4s2.4 5.4 5.4 5.4h7.1v10.2c0 7.8-4.8 14.9-12 17.7l-39.7 15.7c-11.5 4.5-18.9 15.4-18.9 27.8v6.9c0 .4.1.8.1 1.1l23.7 111c2.8 13.2 14.6 22.7 28 22.7h139.9c13.5 0 25.3-9.5 28.1-22.7l23.6-111c.1-.3.2-.7.2-1.1v-6.9c.1-12.4-7.3-23.3-18.8-27.8z"/><g>
<path stroke="white" fill="white" d="m276.2 71.2-47.6 151.9c-3.4 11-15.3 18.2-27.7 14.5l-98.1-30.7c-11.9-3.7-18.1-16.3-14.5-27.7l47.6-151.9c6.3-20.1 27.8-31.9 48.7-25.4l66.2 20.7c20.8 6.4 31.8 28.4 25.4 48.6z"/></g><g>
<path stroke="white" fill="white" d="m169.5 239.1-46.9 149.9-1.6 42.5c-.4 11.3-11.3 20.2-23.4 16.6l-30-9.4c-11.5-3.7-16.2-17.1-9.8-27l22.9-35.8 47-149.9z"/></g></g></g></svg>