<?xml version="1.0" encoding="iso-8859-1"?>
<!-- Generator: Adobe Illustrator 18.0.0, SVG Export Plug-In . SVG Version: 6.00 Build 0)  -->
<!DOCTYPE svg PUBLIC "-//W3C//DTD SVG 1.1//EN" "http://www.w3.org/Graphics/SVG/1.1/DTD/svg11.dtd">
<svg version="1.1" id="Capa_1" xmlns="http://www.w3.org/2000/svg" xmlns:xlink="http://www.w3.org/1999/xlink" x="0px" y="0px"
	 viewBox="0 0 297.677 297.677" style="enable-background:new 0 0 297.677 297.677;" xml:space="preserve">
<g>
	<path stroke="white" fill="white" d="M282.974,198.19l-30.098-57.16c-1.454-2.761-4.146-4.444-7.035-4.734c-1.141-0.152,1.352-0.106-34.468-0.106
		c-1.433,0-2.981,0.231-4.307,0.811l-43.529,19.06l-32.652-82.048c-1.866-4.689-5.963-8.074-10.884-8.069v-0.005
		c0,0-46.309,0-61.903,0c-5.713,0-11.203,2.934-13.18,8.578l-30.482,87.007c-2.224,6.347,0.54,13.55,6.658,16.344
		c1.762,0.804,3.591,1.179,5.381,1.179c5.324,0,10.307-3.324,12.167-8.633l15.078-43.037v8.889l-19.184,65.198
		c-0.521,3.832,1.367,7.719,5.051,9.617c1.344,0.692,2.858,0.992,4.37,0.992l10.021,0l0,69.697c0,8.33,6.402,15.498,14.723,15.89
		c8.884,0.418,16.219-6.661,16.219-15.453v-64.977c0-2.848,2.309-5.157,5.157-5.157h0c2.848,0,5.157,2.309,5.157,5.157l0,64.54
		c0,8.33,6.402,15.498,14.723,15.89c8.884,0.418,16.219-6.661,16.219-15.453v-70.134l10.021,0c1.512,0,3.026-0.3,4.37-0.992
		c3.685-1.898,5.573-5.785,5.052-9.617l-19.184-65.198v-3.708l15.266,38.361c3.051,7.668,11.82,9.437,19.436,5.736
		c10.743-5.221,39.987-17.509,39.987-17.509l-9.705,66.375c-0.952,3.484,0.177,7.272,3.058,9.669
		c1.734,1.443,3.971,2.144,6.227,2.144l2.047,0v48.333c0,5.913,4.626,10.986,10.539,11.094c6.024,0.11,10.941-4.74,10.941-10.738
		v-45.109c0-1.977,1.603-3.58,3.58-3.58l0,0c1.977,0,3.58,1.603,3.58,3.58v44.753c0,5.913,4.626,10.986,10.539,11.094
		c6.024,0.11,10.941-4.74,10.941-10.738v-48.689l2.047,0c2.256,0,4.493-0.701,6.227-2.144c2.88-2.397,4.01-6.185,3.058-9.669
		l-4.973-34.014l7.91,15.023c1.602,3.044,4.711,4.782,7.928,4.782c1.405,0,2.831-0.332,4.162-1.032
		C283.597,207.976,285.276,202.563,282.974,198.19z"/>
	<path stroke="white" fill="white" d="M183.467,125.62h12.66c1.759,0,3.208-1.365,3.318-3.12c0.424-6.777,2.592-13.436,6.43-19.265
		c-0.011,0.29-0.022,0.58-0.022,0.873c0,12.87,10.433,23.304,23.304,23.304c12.87,0,23.304-10.433,23.304-23.304
		c0-0.512-0.022-1.018-0.055-1.521c4.109,5.98,6.415,12.885,6.854,19.913c0.11,1.755,1.56,3.12,3.318,3.12h12.661
		c0.951,0,1.857-0.411,2.488-1.122c0.631-0.711,0.929-1.658,0.817-2.602c-1.729-14.577-13.481-26.079-28.171-27.428
		c-3.668-8.058-11.784-13.664-21.215-13.664c-9.449,0-17.578,5.627-21.236,13.709c-14.497,1.524-26.047,12.943-27.759,27.383
		c-0.112,0.944,0.186,1.891,0.817,2.602C181.611,125.209,182.516,125.62,183.467,125.62z"/>
	<circle stroke="white" fill="white" cx="90.075" cy="28.032" r="28.032"/>
</g>
<g>
</g>
<g>
</g>
<g>
</g>
<g>
</g>
<g>
</g>
<g>
</g>
<g>
</g>
<g>
</g>
<g>
</g>
<g>
</g>
<g>
</g>
<g>
</g>
<g>
</g>
<g>
</g>
<g>
</g>
</svg>
