<svg xmlns="http://www.w3.org/2000/svg" xmlns:xlink="http://www.w3.org/1999/xlink" width="140" zoomAndPan="magnify" viewBox="0 0 104.88 48.75" height="65" preserveAspectRatio="xMidYMid meet" version="1.0"><defs><g/><clipPath id="e699afeb47"><path d="M 0.207031 9 L 28 9 L 28 46 L 0.207031 46 Z M 0.207031 9 " clip-rule="nonzero"/></clipPath><clipPath id="80c7e5ea5a"><path d="M 91 21 L 104.554688 21 L 104.554688 33 L 91 33 Z M 91 21 " clip-rule="nonzero"/></clipPath></defs><g clip-path="url(#e699afeb47)"><g fill="#e19ea8" fill-opacity="1"><g transform="translate(0.480423, 33.950894)"><g><path d="M 9.984375 11.574219 L 10.292969 11.574219 C 13.074219 11 15.328125 5.34375 16.167969 2.5625 C 16.476562 1.679688 16.875 1.058594 17.535156 0.398438 C 20.1875 -2.296875 22.835938 -4.949219 25.664062 -7.421875 C 26.019531 -7.730469 26.328125 -7.996094 26.636719 -8.304688 L 27.035156 -8.703125 C 27.253906 -9.011719 27.253906 -9.277344 27.035156 -9.496094 C 26.902344 -9.585938 26.769531 -9.628906 26.636719 -9.628906 C 26.503906 -9.628906 26.371094 -9.585938 26.238281 -9.496094 C 26.152344 -9.453125 26.0625 -9.363281 26.019531 -9.320312 C 25.929688 -9.230469 25.839844 -9.144531 25.796875 -9.101562 C 23.148438 -6.757812 20.628906 -4.375 18.15625 -1.855469 C 18.023438 -1.722656 17.890625 -1.546875 17.667969 -1.546875 L 17.535156 -1.546875 C 17.40625 -1.765625 17.449219 -2.03125 17.582031 -2.253906 C 18.683594 -6.800781 19.523438 -11.21875 20.40625 -15.8125 C 20.453125 -16.125 20.496094 -16.300781 20.496094 -16.519531 C 20.496094 -16.785156 20.40625 -16.960938 20.277344 -17.007812 C 20.097656 -17.050781 19.964844 -17.09375 19.921875 -17.09375 C 19.832031 -17.09375 19.703125 -17.050781 19.570312 -16.960938 C 19.257812 -16.652344 18.996094 -16.34375 18.730469 -15.992188 C 17.582031 -14.664062 16.433594 -13.339844 15.328125 -11.972656 C 14.179688 -10.601562 13.03125 -9.277344 11.882812 -7.953125 C 11.21875 -7.113281 8.96875 -4.816406 7.554688 -3.488281 C 6.050781 -2.074219 3.800781 -0.351562 2.5625 -0.351562 C 1.855469 -0.351562 1.414062 -0.925781 1.238281 -2.074219 C 1.148438 -2.386719 1.148438 -2.78125 1.191406 -3.226562 C 1.238281 -3.710938 1.28125 -4.152344 1.414062 -4.636719 C 2.828125 -10.601562 6.316406 -18.023438 11.175781 -21.820312 C 12.191406 -22.660156 13.605469 -23.457031 14.976562 -23.457031 C 15.859375 -23.457031 16.34375 -22.882812 16.433594 -21.6875 C 16.433594 -20.320312 16.125 -19.171875 15.636719 -17.890625 C 14.976562 -16.34375 14.3125 -14.929688 13.472656 -13.515625 C 13.429688 -13.382812 13.339844 -13.253906 13.253906 -13.121094 C 13.164062 -12.988281 13.074219 -12.898438 13.03125 -12.765625 C 12.988281 -12.589844 13.03125 -12.457031 13.164062 -12.367188 C 13.207031 -12.324219 13.339844 -12.324219 13.472656 -12.324219 L 13.5625 -12.324219 C 14.84375 -12.898438 17.09375 -18.421875 17.449219 -20.277344 C 17.535156 -20.671875 17.582031 -21.113281 17.582031 -21.558594 C 17.582031 -22 17.492188 -22.441406 17.359375 -22.835938 C 17.007812 -24.03125 16.210938 -24.605469 15.019531 -24.605469 C 12.015625 -24.605469 9.054688 -21.777344 7.199219 -19.4375 C 3.710938 -15.152344 1.589844 -10.25 0.308594 -4.902344 C 0.132812 -4.0625 -0.0429688 -3.3125 0 -2.472656 C 0.132812 -0.882812 0.839844 0.839844 2.472656 0.839844 C 2.519531 0.839844 2.605469 0.839844 2.652344 0.839844 C 2.695312 0.796875 2.78125 0.796875 2.828125 0.796875 C 5.785156 0.441406 11.398438 -5.476562 13.296875 -7.773438 L 17.800781 -13.074219 C 17.933594 -13.207031 18.023438 -13.382812 18.15625 -13.5625 C 18.242188 -13.695312 18.421875 -13.78125 18.683594 -13.78125 C 18.816406 -13.472656 18.730469 -13.121094 18.683594 -12.808594 C 17.847656 -8.570312 16.960938 -4.460938 15.859375 -0.265625 C 15.679688 0.398438 15.328125 1.015625 14.84375 1.589844 C 13.253906 3.269531 9.054688 7.90625 8.835938 10.160156 C 8.746094 11.085938 9.144531 11.574219 9.984375 11.574219 Z M 10.425781 10.292969 C 10.335938 10.335938 10.25 10.335938 10.160156 10.25 C 10.117188 10.203125 10.070312 10.117188 10.070312 10.027344 C 10.117188 9.363281 10.46875 8.835938 10.824219 8.347656 C 11.175781 7.863281 11.527344 7.378906 11.925781 6.890625 C 12.324219 6.40625 12.679688 5.875 13.074219 5.390625 C 13.207031 5.167969 13.382812 4.949219 13.5625 4.816406 C 13.738281 4.636719 13.871094 4.417969 13.957031 4.195312 C 14.179688 4.417969 14.179688 4.636719 14.046875 4.949219 C 13.472656 6.492188 12.765625 7.953125 11.75 9.230469 C 11.351562 9.71875 10.953125 10.070312 10.425781 10.292969 Z M 10.425781 10.292969 "/></g></g></g></g><g fill="#e19ea8" fill-opacity="1"><g transform="translate(24.682175, 33.950894)"><g><path d="M 0.222656 -3.800781 C 0.796875 -3.800781 1.546875 -4.417969 1.945312 -4.769531 C 3.046875 -5.785156 4.019531 -6.847656 5.035156 -8.039062 C 5.167969 -8.171875 5.34375 -8.347656 5.476562 -8.527344 C 5.609375 -8.703125 5.832031 -8.835938 6.140625 -8.96875 C 5.832031 -7.773438 5.566406 -6.625 5.566406 -5.433594 C 5.566406 -4.59375 5.917969 -4.152344 6.671875 -4.152344 C 6.847656 -4.152344 6.980469 -4.152344 7.066406 -4.195312 C 8.921875 -4.503906 12.058594 -7.464844 13.339844 -8.746094 C 13.382812 -8.789062 13.472656 -8.878906 13.515625 -8.921875 C 13.5625 -8.96875 13.5625 -9.011719 13.605469 -9.054688 C 13.695312 -9.363281 13.648438 -9.585938 13.429688 -9.71875 C 13.339844 -9.804688 13.253906 -9.851562 13.121094 -9.851562 C 13.074219 -9.851562 13.03125 -9.804688 12.898438 -9.761719 C 12.765625 -9.675781 12.632812 -9.585938 12.546875 -9.496094 C 12.414062 -9.363281 12.28125 -9.277344 12.148438 -9.144531 C 11.75 -8.835938 11.398438 -8.527344 11.085938 -8.214844 C 10.734375 -7.90625 10.378906 -7.554688 9.984375 -7.246094 C 9.453125 -6.757812 8.878906 -6.40625 8.347656 -6.050781 C 7.953125 -5.832031 7.554688 -5.652344 7.15625 -5.476562 C 7.113281 -5.433594 7.066406 -5.433594 6.980469 -5.433594 C 6.800781 -5.433594 6.714844 -5.566406 6.714844 -5.832031 C 6.714844 -7.730469 8.082031 -10.953125 8.921875 -12.632812 C 9.011719 -12.855469 9.101562 -13.03125 9.230469 -13.253906 C 9.320312 -13.429688 9.410156 -13.605469 9.496094 -13.828125 C 9.628906 -14.222656 9.585938 -14.53125 9.277344 -14.710938 C 9.144531 -14.753906 9.054688 -14.796875 9.011719 -14.796875 C 8.878906 -14.796875 8.703125 -14.710938 8.480469 -14.488281 C 8.347656 -14.355469 8.261719 -14.179688 8.171875 -14.046875 C 8.039062 -13.871094 7.953125 -13.695312 7.820312 -13.5625 C 7.554688 -13.207031 7.289062 -12.855469 7.066406 -12.5 C 6.800781 -12.148438 6.539062 -11.792969 6.273438 -11.484375 C 6.097656 -11.265625 5.964844 -11.132812 5.875 -11.132812 C 5.832031 -11.132812 5.699219 -11.21875 5.476562 -11.351562 C 5.035156 -11.707031 4.59375 -11.882812 4.152344 -11.882812 C 3.667969 -11.882812 3.179688 -11.707031 2.695312 -11.308594 C 2.386719 -11.085938 2.164062 -10.910156 2.03125 -10.734375 C 0.707031 -9.410156 -0.75 -6.800781 -0.75 -4.859375 C -0.707031 -4.152344 -0.351562 -3.800781 0.222656 -3.800781 Z M 0.617188 -5.390625 C 0.617188 -5.433594 0.617188 -5.433594 0.574219 -5.433594 L 0.53125 -5.476562 C 0.882812 -7.378906 1.765625 -8.96875 3.136719 -10.160156 C 3.355469 -10.378906 3.886719 -10.691406 4.195312 -10.691406 C 4.417969 -10.691406 4.59375 -10.601562 4.816406 -10.46875 C 5.035156 -10.335938 5.078125 -10.117188 4.992188 -9.851562 C 4.949219 -9.71875 4.859375 -9.675781 4.816406 -9.628906 C 3.621094 -8.171875 2.429688 -6.714844 1.015625 -5.523438 C 0.925781 -5.433594 0.796875 -5.390625 0.617188 -5.390625 Z M 0.617188 -5.390625 "/></g></g></g><g fill="#e19ea8" fill-opacity="1"><g transform="translate(35.369724, 33.950894)"><g><path d="M -0.0898438 2.074219 L 0.0429688 2.074219 C 0.308594 2.074219 0.484375 1.988281 0.53125 1.855469 C 0.574219 1.722656 0.617188 1.589844 0.664062 1.457031 C 0.707031 1.324219 0.75 1.148438 0.796875 1.015625 C 2.121094 -3.003906 3.355469 -6.492188 6.800781 -9.101562 C 7.289062 -9.410156 7.6875 -9.675781 8.214844 -9.851562 C 8.261719 -9.894531 8.347656 -9.894531 8.480469 -9.894531 C 8.789062 -9.894531 8.96875 -9.71875 8.96875 -9.320312 C 9.011719 -8.4375 8.789062 -7.597656 8.570312 -6.757812 C 8.394531 -5.917969 7.953125 -5.257812 7.246094 -4.769531 C 6.050781 -3.84375 3.929688 -2.074219 3.578125 -0.617188 C 3.445312 -0.0429688 3.886719 0.441406 4.460938 0.398438 C 5.917969 0.265625 7.863281 -2.339844 8.480469 -3.578125 C 8.878906 -4.460938 9.453125 -5.035156 10.292969 -5.566406 C 11.925781 -6.582031 13.605469 -7.507812 15.328125 -8.347656 C 15.550781 -8.480469 15.8125 -8.570312 16.035156 -8.703125 C 16.253906 -8.835938 16.519531 -8.96875 16.742188 -9.101562 C 17.050781 -9.230469 17.140625 -9.496094 17.050781 -9.804688 C 17.007812 -10.027344 16.832031 -10.117188 16.566406 -10.117188 C 16.433594 -10.117188 16.34375 -10.117188 16.300781 -10.070312 C 16.125 -10.027344 15.992188 -9.9375 15.902344 -9.894531 C 14.179688 -9.054688 12.414062 -8.261719 10.777344 -7.246094 C 10.691406 -7.199219 10.601562 -7.113281 10.511719 -7.066406 C 10.425781 -6.980469 10.292969 -6.933594 10.160156 -6.933594 L 10.027344 -6.933594 C 9.894531 -7.066406 9.894531 -7.15625 9.9375 -7.289062 C 9.984375 -7.378906 9.984375 -7.507812 9.984375 -7.640625 C 10.027344 -7.953125 10.070312 -8.261719 10.117188 -8.570312 C 10.160156 -8.878906 10.160156 -9.1875 10.117188 -9.496094 C 10.070312 -10.601562 9.628906 -11.132812 8.746094 -11.132812 C 8.527344 -11.132812 8.261719 -11.085938 7.996094 -11 C 7.6875 -10.910156 7.378906 -10.777344 7.066406 -10.601562 C 6.757812 -10.425781 6.492188 -10.25 6.183594 -10.070312 C 4.636719 -8.96875 3.488281 -7.597656 2.472656 -6.050781 C 2.386719 -5.917969 2.296875 -5.742188 2.207031 -5.566406 C 2.121094 -5.390625 1.945312 -5.257812 1.679688 -5.210938 C 1.898438 -7.953125 3.226562 -12.898438 4.503906 -15.195312 C 4.636719 -15.503906 4.769531 -15.769531 4.902344 -16.078125 C 5.035156 -16.34375 5.167969 -16.609375 5.300781 -16.917969 C 6.539062 -19.878906 7.773438 -22.792969 8.65625 -25.839844 C 8.789062 -26.238281 8.878906 -26.636719 8.921875 -27.121094 C 8.96875 -27.433594 8.921875 -27.695312 8.613281 -27.875 C 8.570312 -27.917969 8.480469 -27.917969 8.394531 -27.917969 C 8.171875 -27.917969 8.039062 -27.828125 7.90625 -27.609375 C 7.554688 -27.121094 7.246094 -26.679688 6.933594 -26.152344 C 4.859375 -21.601562 3.402344 -17.050781 2.03125 -12.28125 C 1.546875 -10.824219 1.148438 -9.363281 0.925781 -7.820312 C 0.707031 -6.359375 0.441406 -4.949219 0.222656 -3.535156 C 0 -2.121094 -0.222656 -0.707031 -0.351562 0.75 C -0.398438 1.058594 -0.441406 1.324219 -0.441406 1.632812 C -0.441406 1.855469 -0.308594 1.988281 -0.0898438 2.074219 Z M -0.0898438 2.074219 "/></g></g></g><g fill="#e19ea8" fill-opacity="1"><g transform="translate(49.502063, 33.950894)"><g><path d="M -0.132812 0.75 C 0.132812 0.75 0.351562 0.617188 0.484375 0.398438 C 0.796875 -0.0898438 1.058594 -0.484375 1.28125 -0.972656 C 1.679688 -1.722656 2.03125 -2.429688 2.386719 -3.136719 C 2.695312 -3.84375 3.046875 -4.550781 3.402344 -5.257812 C 3.929688 -6.273438 4.550781 -7.246094 5.390625 -8.082031 C 5.566406 -8.304688 5.742188 -8.527344 6.140625 -8.527344 C 6.273438 -8.347656 6.359375 -8.171875 6.449219 -7.996094 C 6.539062 -7.820312 6.671875 -7.640625 6.800781 -7.464844 C 7.289062 -6.800781 7.863281 -6.492188 8.613281 -6.492188 C 9.851562 -6.492188 11.707031 -7.953125 12.546875 -8.789062 C 12.679688 -8.921875 12.808594 -9.101562 12.941406 -9.363281 C 13.03125 -9.542969 12.988281 -9.71875 12.808594 -9.894531 C 12.679688 -9.984375 12.589844 -10.027344 12.457031 -10.027344 C 12.367188 -10.027344 12.324219 -10.027344 12.28125 -9.984375 C 12.058594 -9.851562 11.882812 -9.71875 11.707031 -9.542969 C 10.953125 -8.921875 9.410156 -7.640625 8.613281 -7.640625 C 8.214844 -7.640625 7.863281 -7.90625 7.554688 -8.4375 C 7.464844 -8.570312 7.378906 -8.746094 7.332031 -8.96875 C 7.246094 -9.144531 7.15625 -9.320312 7.066406 -9.453125 C 6.847656 -9.804688 6.582031 -9.984375 6.226562 -9.984375 C 6.050781 -9.984375 5.875 -9.9375 5.699219 -9.851562 C 4.328125 -9.011719 3.269531 -7.507812 2.5625 -6.140625 L 0.839844 -2.652344 L 0.796875 -2.695312 L 0.839844 -2.695312 C 0.617188 -3.179688 0.75 -3.621094 0.882812 -4.109375 C 1.238281 -5.433594 1.722656 -6.800781 2.296875 -8.171875 C 2.695312 -9.054688 3.09375 -9.9375 3.445312 -10.824219 C 3.578125 -11.175781 3.667969 -11.484375 3.667969 -11.792969 C 3.710938 -12.015625 3.621094 -12.148438 3.355469 -12.234375 L 3.226562 -12.234375 C 3.046875 -12.234375 2.914062 -12.191406 2.828125 -12.105469 C 2.695312 -11.925781 2.605469 -11.707031 2.472656 -11.484375 C 0.925781 -7.953125 -0.308594 -5.035156 -0.882812 -1.105469 C -0.925781 -0.882812 -0.925781 -0.707031 -0.925781 -0.53125 C -0.882812 -0.308594 -0.882812 -0.132812 -0.882812 0.0429688 C -0.839844 0.398438 -0.664062 0.617188 -0.351562 0.707031 C -0.308594 0.707031 -0.265625 0.707031 -0.265625 0.75 C -0.222656 0.75 -0.175781 0.75 -0.132812 0.75 Z M -0.132812 0.75 "/></g></g></g><g fill="#e19ea8" fill-opacity="1"><g transform="translate(59.527146, 33.950894)"><g><path d="M 1.898438 -1.589844 C 3.09375 -1.589844 4.285156 -2.519531 5.125 -3.269531 C 7.066406 -4.902344 8.613281 -6.847656 10.160156 -8.835938 C 10.292969 -8.96875 10.378906 -9.101562 10.425781 -9.320312 C 10.46875 -9.542969 10.425781 -9.71875 10.25 -9.851562 C 10.160156 -9.9375 10.070312 -9.984375 9.9375 -9.984375 C 9.851562 -9.984375 9.761719 -9.9375 9.71875 -9.894531 C 9.496094 -9.71875 9.277344 -9.542969 9.101562 -9.320312 C 8.746094 -8.921875 8.394531 -8.480469 8.082031 -8.082031 C 7.773438 -7.6875 7.421875 -7.246094 7.066406 -6.847656 C 6.050781 -5.652344 4.992188 -4.636719 3.800781 -3.621094 C 3.269531 -3.226562 2.78125 -2.914062 2.121094 -2.78125 C 1.632812 -2.78125 1.371094 -2.828125 1.238281 -3.3125 C 1.148438 -3.710938 1.105469 -4.109375 1.148438 -4.460938 C 1.414062 -6.539062 2.074219 -8.746094 2.828125 -10.691406 C 2.871094 -10.910156 2.828125 -11.085938 2.605469 -11.175781 C 2.472656 -11.21875 2.386719 -11.265625 2.296875 -11.265625 C 2.207031 -11.265625 2.074219 -11.21875 1.945312 -11.132812 C 0.796875 -9.984375 0.308594 -6.40625 0 -4.460938 C 0 -3.800781 0 -3.355469 0.175781 -2.871094 C 0.484375 -2.03125 1.058594 -1.589844 1.898438 -1.589844 Z M 3.046875 -12.855469 C 3.535156 -12.855469 3.976562 -13.296875 3.976562 -13.78125 C 3.929688 -14.269531 3.621094 -14.488281 3.09375 -14.488281 C 2.5625 -14.488281 2.296875 -14.222656 2.296875 -13.695312 C 2.339844 -13.164062 2.652344 -12.808594 3.046875 -12.855469 Z M 3.046875 -12.855469 "/></g></g></g><g fill="#e19ea8" fill-opacity="1"><g transform="translate(66.99072, 33.950894)"><g><path d="M 2.074219 -1.855469 C 5.125 -1.855469 9.761719 -6.359375 11.882812 -8.613281 C 12.058594 -8.789062 12.191406 -8.921875 12.234375 -9.054688 C 12.367188 -9.277344 12.324219 -9.496094 12.105469 -9.71875 C 12.015625 -9.804688 11.925781 -9.851562 11.792969 -9.851562 C 11.707031 -9.851562 11.574219 -9.804688 11.441406 -9.71875 C 11.308594 -9.585938 11.175781 -9.453125 11.042969 -9.320312 C 10.910156 -9.1875 10.734375 -9.054688 10.601562 -8.921875 C 10.070312 -8.4375 9.542969 -7.953125 9.054688 -7.464844 C 8.527344 -6.980469 7.996094 -6.449219 7.464844 -5.964844 C 6.183594 -4.769531 4.152344 -3.355469 2.386719 -3.003906 C 1.546875 -3.003906 1.058594 -3.003906 0.882812 -4.019531 C 0.664062 -4.59375 0.617188 -5.078125 0.75 -5.566406 C 0.796875 -5.785156 0.925781 -5.917969 1.105469 -5.964844 C 3.226562 -6.183594 6.007812 -8.789062 6.359375 -10.953125 C 6.492188 -11.972656 5.917969 -12.589844 5.035156 -12.589844 C 4.992188 -12.589844 4.902344 -12.589844 4.859375 -12.589844 C 4.816406 -12.546875 4.726562 -12.546875 4.683594 -12.546875 C 2.339844 -12.191406 0.617188 -9.101562 -0.132812 -7.023438 C -0.308594 -6.359375 -0.484375 -5.742188 -0.441406 -4.992188 C -0.484375 -4.503906 -0.351562 -3.976562 -0.175781 -3.488281 C 0.132812 -2.386719 0.882812 -1.855469 2.074219 -1.855469 Z M 1.679688 -7.289062 C 1.632812 -7.246094 1.546875 -7.289062 1.414062 -7.332031 C 1.371094 -7.332031 1.324219 -7.421875 1.324219 -7.554688 C 1.8125 -8.921875 3.3125 -11.132812 4.769531 -11.351562 C 4.992188 -11.398438 5.125 -11.308594 5.167969 -11 C 5.167969 -9.585938 2.828125 -7.90625 1.679688 -7.289062 Z M 1.679688 -7.289062 "/></g></g></g><g fill="#e19ea8" fill-opacity="1"><g transform="translate(76.309183, 33.950894)"><g><path d="M 1.457031 2.339844 C 2.339844 2.339844 3.753906 0.839844 4.242188 0.0898438 C 5.167969 -1.148438 6.140625 -2.429688 7.113281 -3.800781 C 8.039062 -5.125 9.011719 -6.40625 9.9375 -7.597656 C 10.160156 -7.953125 10.425781 -8.347656 10.601562 -8.703125 C 10.734375 -8.835938 10.777344 -9.011719 10.777344 -9.230469 C 10.824219 -9.453125 10.777344 -9.628906 10.558594 -9.71875 C 10.425781 -9.761719 10.335938 -9.804688 10.25 -9.804688 C 9.9375 -9.804688 9.542969 -9.101562 9.410156 -8.878906 C 7.464844 -6.183594 5.210938 -3.046875 3.136719 -0.398438 C 2.914062 -0.0898438 2.074219 0.972656 1.679688 0.972656 C 1.457031 0.972656 1.324219 0.839844 1.28125 0.617188 C 0.972656 -0.265625 1.058594 -1.191406 1.191406 -2.074219 C 1.414062 -4.816406 2.03125 -9.628906 3.578125 -11.972656 C 5.609375 -15.019531 9.410156 -21.378906 10.203125 -24.914062 C 10.25 -25.265625 10.203125 -25.621094 9.804688 -25.796875 C 9.628906 -25.839844 9.542969 -25.886719 9.496094 -25.886719 C 9.320312 -25.886719 9.101562 -25.796875 8.878906 -25.621094 C 5.832031 -22.574219 3.355469 -15.902344 2.03125 -11.882812 C 1.722656 -10.867188 1.457031 -9.984375 0.796875 -9.144531 C 0.617188 -8.96875 0.484375 -8.703125 0.664062 -8.480469 C 1.058594 -7.996094 0.882812 -7.464844 0.75 -6.980469 C 0.351562 -5.078125 0.0429688 -3.226562 0 -0.972656 C 0 -0.839844 0 -0.617188 0 -0.351562 C 0 -0.0898438 0 0.175781 0.0429688 0.484375 C 0.175781 1.191406 0.617188 2.339844 1.457031 2.339844 Z M 5.035156 -15.859375 C 4.902344 -16.125 4.949219 -16.433594 5.078125 -16.785156 C 5.917969 -18.949219 6.933594 -20.980469 8.128906 -22.96875 C 8.304688 -23.191406 8.4375 -23.324219 8.570312 -23.324219 C 8.613281 -23.324219 8.703125 -23.28125 8.835938 -23.234375 C 8.789062 -23.28125 8.789062 -23.324219 8.789062 -23.367188 C 8.789062 -23.324219 8.789062 -23.324219 8.835938 -23.28125 L 8.835938 -23.234375 L 7.640625 -20.851562 C 6.757812 -19.171875 5.917969 -17.492188 5.078125 -15.859375 C 5.078125 -15.902344 5.078125 -15.902344 5.078125 -15.902344 C 5.035156 -15.902344 5.035156 -15.902344 5.035156 -15.859375 Z M 5.035156 -15.859375 "/></g></g></g><g fill="#e19ea8" fill-opacity="1"><g transform="translate(84.126066, 33.950894)"><g><path d="M 1.457031 2.339844 C 2.339844 2.339844 3.753906 0.839844 4.242188 0.0898438 C 5.167969 -1.148438 6.140625 -2.429688 7.113281 -3.800781 C 8.039062 -5.125 9.011719 -6.40625 9.9375 -7.597656 C 10.160156 -7.953125 10.425781 -8.347656 10.601562 -8.703125 C 10.734375 -8.835938 10.777344 -9.011719 10.777344 -9.230469 C 10.824219 -9.453125 10.777344 -9.628906 10.558594 -9.71875 C 10.425781 -9.761719 10.335938 -9.804688 10.25 -9.804688 C 9.9375 -9.804688 9.542969 -9.101562 9.410156 -8.878906 C 7.464844 -6.183594 5.210938 -3.046875 3.136719 -0.398438 C 2.914062 -0.0898438 2.074219 0.972656 1.679688 0.972656 C 1.457031 0.972656 1.324219 0.839844 1.28125 0.617188 C 0.972656 -0.265625 1.058594 -1.191406 1.191406 -2.074219 C 1.414062 -4.816406 2.03125 -9.628906 3.578125 -11.972656 C 5.609375 -15.019531 9.410156 -21.378906 10.203125 -24.914062 C 10.25 -25.265625 10.203125 -25.621094 9.804688 -25.796875 C 9.628906 -25.839844 9.542969 -25.886719 9.496094 -25.886719 C 9.320312 -25.886719 9.101562 -25.796875 8.878906 -25.621094 C 5.832031 -22.574219 3.355469 -15.902344 2.03125 -11.882812 C 1.722656 -10.867188 1.457031 -9.984375 0.796875 -9.144531 C 0.617188 -8.96875 0.484375 -8.703125 0.664062 -8.480469 C 1.058594 -7.996094 0.882812 -7.464844 0.75 -6.980469 C 0.351562 -5.078125 0.0429688 -3.226562 0 -0.972656 C 0 -0.839844 0 -0.617188 0 -0.351562 C 0 -0.0898438 0 0.175781 0.0429688 0.484375 C 0.175781 1.191406 0.617188 2.339844 1.457031 2.339844 Z M 5.035156 -15.859375 C 4.902344 -16.125 4.949219 -16.433594 5.078125 -16.785156 C 5.917969 -18.949219 6.933594 -20.980469 8.128906 -22.96875 C 8.304688 -23.191406 8.4375 -23.324219 8.570312 -23.324219 C 8.613281 -23.324219 8.703125 -23.28125 8.835938 -23.234375 C 8.789062 -23.28125 8.789062 -23.324219 8.789062 -23.367188 C 8.789062 -23.324219 8.789062 -23.324219 8.835938 -23.28125 L 8.835938 -23.234375 L 7.640625 -20.851562 C 6.757812 -19.171875 5.917969 -17.492188 5.078125 -15.859375 C 5.078125 -15.902344 5.078125 -15.902344 5.078125 -15.902344 C 5.035156 -15.902344 5.035156 -15.902344 5.035156 -15.859375 Z M 5.035156 -15.859375 "/></g></g></g><g clip-path="url(#80c7e5ea5a)"><g fill="#e19ea8" fill-opacity="1"><g transform="translate(91.942949, 33.950894)"><g><path d="M 2.074219 -1.855469 C 5.125 -1.855469 9.761719 -6.359375 11.882812 -8.613281 C 12.058594 -8.789062 12.191406 -8.921875 12.234375 -9.054688 C 12.367188 -9.277344 12.324219 -9.496094 12.105469 -9.71875 C 12.015625 -9.804688 11.925781 -9.851562 11.792969 -9.851562 C 11.707031 -9.851562 11.574219 -9.804688 11.441406 -9.71875 C 11.308594 -9.585938 11.175781 -9.453125 11.042969 -9.320312 C 10.910156 -9.1875 10.734375 -9.054688 10.601562 -8.921875 C 10.070312 -8.4375 9.542969 -7.953125 9.054688 -7.464844 C 8.527344 -6.980469 7.996094 -6.449219 7.464844 -5.964844 C 6.183594 -4.769531 4.152344 -3.355469 2.386719 -3.003906 C 1.546875 -3.003906 1.058594 -3.003906 0.882812 -4.019531 C 0.664062 -4.59375 0.617188 -5.078125 0.75 -5.566406 C 0.796875 -5.785156 0.925781 -5.917969 1.105469 -5.964844 C 3.226562 -6.183594 6.007812 -8.789062 6.359375 -10.953125 C 6.492188 -11.972656 5.917969 -12.589844 5.035156 -12.589844 C 4.992188 -12.589844 4.902344 -12.589844 4.859375 -12.589844 C 4.816406 -12.546875 4.726562 -12.546875 4.683594 -12.546875 C 2.339844 -12.191406 0.617188 -9.101562 -0.132812 -7.023438 C -0.308594 -6.359375 -0.484375 -5.742188 -0.441406 -4.992188 C -0.484375 -4.503906 -0.351562 -3.976562 -0.175781 -3.488281 C 0.132812 -2.386719 0.882812 -1.855469 2.074219 -1.855469 Z M 1.679688 -7.289062 C 1.632812 -7.246094 1.546875 -7.289062 1.414062 -7.332031 C 1.371094 -7.332031 1.324219 -7.421875 1.324219 -7.554688 C 1.8125 -8.921875 3.3125 -11.132812 4.769531 -11.351562 C 4.992188 -11.398438 5.125 -11.308594 5.167969 -11 C 5.167969 -9.585938 2.828125 -7.90625 1.679688 -7.289062 Z M 1.679688 -7.289062 "/></g></g></g></g><g fill="#8d88b0" fill-opacity="1"><g transform="translate(21.779828, 43.026966)"><g><path d="M 4.21875 -2.59375 C 4.3125 -2.59375 4.390625 -2.5625 4.453125 -2.5 C 4.515625 -2.4375 4.546875 -2.359375 4.546875 -2.265625 L 4.546875 -0.671875 C 4.546875 -0.546875 4.488281 -0.445312 4.375 -0.375 C 4.15625 -0.226562 3.914062 -0.113281 3.65625 -0.03125 C 3.40625 0.0390625 3.144531 0.078125 2.875 0.078125 C 2.394531 0.078125 1.957031 -0.0351562 1.5625 -0.265625 C 1.175781 -0.492188 0.867188 -0.800781 0.640625 -1.1875 C 0.410156 -1.570312 0.296875 -2 0.296875 -2.46875 C 0.296875 -2.9375 0.410156 -3.363281 0.640625 -3.75 C 0.867188 -4.144531 1.175781 -4.453125 1.5625 -4.671875 C 1.957031 -4.898438 2.394531 -5.015625 2.875 -5.015625 C 3.101562 -5.015625 3.328125 -4.988281 3.546875 -4.9375 C 3.765625 -4.882812 3.960938 -4.804688 4.140625 -4.703125 C 4.191406 -4.671875 4.234375 -4.628906 4.265625 -4.578125 C 4.296875 -4.535156 4.3125 -4.484375 4.3125 -4.421875 C 4.3125 -4.328125 4.28125 -4.242188 4.21875 -4.171875 C 4.15625 -4.109375 4.078125 -4.078125 3.984375 -4.078125 C 3.910156 -4.078125 3.847656 -4.09375 3.796875 -4.125 C 3.492188 -4.269531 3.1875 -4.34375 2.875 -4.34375 C 2.53125 -4.34375 2.21875 -4.257812 1.9375 -4.09375 C 1.65625 -3.925781 1.429688 -3.695312 1.265625 -3.40625 C 1.109375 -3.125 1.03125 -2.8125 1.03125 -2.46875 C 1.03125 -2.125 1.109375 -1.8125 1.265625 -1.53125 C 1.429688 -1.25 1.65625 -1.019531 1.9375 -0.84375 C 2.21875 -0.675781 2.53125 -0.59375 2.875 -0.59375 C 3.03125 -0.59375 3.195312 -0.613281 3.375 -0.65625 C 3.550781 -0.695312 3.703125 -0.75 3.828125 -0.8125 L 3.828125 -1.921875 L 2.96875 -1.921875 C 2.875 -1.921875 2.796875 -1.953125 2.734375 -2.015625 C 2.671875 -2.085938 2.640625 -2.171875 2.640625 -2.265625 C 2.640625 -2.359375 2.671875 -2.4375 2.734375 -2.5 C 2.796875 -2.5625 2.875 -2.59375 2.96875 -2.59375 Z M 4.21875 -2.59375 "/></g></g></g><g fill="#8d88b0" fill-opacity="1"><g transform="translate(28.709426, 43.026966)"><g><path d="M 3.3125 -0.65625 C 3.40625 -0.65625 3.484375 -0.625 3.546875 -0.5625 C 3.617188 -0.5 3.65625 -0.421875 3.65625 -0.328125 C 3.65625 -0.234375 3.617188 -0.15625 3.546875 -0.09375 C 3.484375 -0.03125 3.40625 0 3.3125 0 L 0.921875 0 C 0.828125 0 0.75 -0.03125 0.6875 -0.09375 C 0.625 -0.164062 0.59375 -0.25 0.59375 -0.34375 L 0.59375 -4.609375 C 0.59375 -4.703125 0.625 -4.78125 0.6875 -4.84375 C 0.75 -4.90625 0.832031 -4.9375 0.9375 -4.9375 C 1.03125 -4.9375 1.109375 -4.90625 1.171875 -4.84375 C 1.242188 -4.78125 1.28125 -4.703125 1.28125 -4.609375 L 1.28125 -0.65625 Z M 3.3125 -0.65625 "/></g></g></g><g fill="#8d88b0" fill-opacity="1"><g transform="translate(34.614773, 43.026966)"><g><path d="M 1.28125 -0.34375 C 1.28125 -0.25 1.242188 -0.164062 1.171875 -0.09375 C 1.109375 -0.03125 1.03125 0 0.9375 0 C 0.832031 0 0.75 -0.03125 0.6875 -0.09375 C 0.625 -0.164062 0.59375 -0.25 0.59375 -0.34375 L 0.59375 -4.609375 C 0.59375 -4.703125 0.625 -4.78125 0.6875 -4.84375 C 0.75 -4.90625 0.832031 -4.9375 0.9375 -4.9375 C 1.03125 -4.9375 1.109375 -4.90625 1.171875 -4.84375 C 1.242188 -4.78125 1.28125 -4.703125 1.28125 -4.609375 Z M 1.28125 -0.34375 "/></g></g></g><g fill="#8d88b0" fill-opacity="1"><g transform="translate(38.506928, 43.026966)"><g><path d="M 3.796875 -4.9375 C 3.890625 -4.9375 3.96875 -4.90625 4.03125 -4.84375 C 4.09375 -4.789062 4.125 -4.71875 4.125 -4.625 C 4.125 -4.519531 4.09375 -4.4375 4.03125 -4.375 C 3.96875 -4.320312 3.890625 -4.296875 3.796875 -4.296875 L 2.53125 -4.296875 L 2.53125 -0.34375 C 2.53125 -0.25 2.492188 -0.164062 2.421875 -0.09375 C 2.359375 -0.03125 2.273438 0 2.171875 0 C 2.066406 0 1.976562 -0.03125 1.90625 -0.09375 C 1.84375 -0.164062 1.8125 -0.25 1.8125 -0.34375 L 1.8125 -4.296875 L 0.5625 -4.296875 C 0.46875 -4.296875 0.382812 -4.328125 0.3125 -4.390625 C 0.25 -4.453125 0.21875 -4.53125 0.21875 -4.625 C 0.21875 -4.71875 0.25 -4.789062 0.3125 -4.84375 C 0.382812 -4.90625 0.46875 -4.9375 0.5625 -4.9375 Z M 3.796875 -4.9375 "/></g></g></g><g fill="#8d88b0" fill-opacity="1"><g transform="translate(44.885548, 43.026966)"><g><path d="M 3.875 -0.640625 C 3.976562 -0.640625 4.0625 -0.609375 4.125 -0.546875 C 4.1875 -0.492188 4.21875 -0.421875 4.21875 -0.328125 C 4.21875 -0.234375 4.179688 -0.15625 4.109375 -0.09375 C 4.046875 -0.03125 3.96875 0 3.875 0 L 0.65625 0 C 0.5625 0 0.476562 -0.03125 0.40625 -0.09375 C 0.332031 -0.164062 0.296875 -0.242188 0.296875 -0.328125 C 0.296875 -0.398438 0.320312 -0.472656 0.375 -0.546875 L 3.265625 -4.296875 L 0.890625 -4.296875 C 0.796875 -4.296875 0.71875 -4.328125 0.65625 -4.390625 C 0.59375 -4.453125 0.5625 -4.53125 0.5625 -4.625 C 0.5625 -4.71875 0.59375 -4.789062 0.65625 -4.84375 C 0.71875 -4.90625 0.796875 -4.9375 0.890625 -4.9375 L 3.921875 -4.9375 C 4.015625 -4.9375 4.097656 -4.90625 4.171875 -4.84375 C 4.242188 -4.78125 4.28125 -4.703125 4.28125 -4.609375 C 4.28125 -4.546875 4.253906 -4.476562 4.203125 -4.40625 L 1.328125 -0.640625 Z M 3.875 -0.640625 "/></g></g></g><g fill="#8d88b0" fill-opacity="1"><g transform="translate(51.469021, 43.026966)"><g/></g></g><g fill="#8d88b0" fill-opacity="1"><g transform="translate(55.445939, 43.026966)"><g><path d="M 4.28125 -4.9375 C 4.363281 -4.9375 4.429688 -4.90625 4.484375 -4.84375 C 4.546875 -4.789062 4.578125 -4.722656 4.578125 -4.640625 L 4.578125 -0.34375 C 4.578125 -0.25 4.546875 -0.164062 4.484375 -0.09375 C 4.421875 -0.03125 4.34375 0 4.25 0 C 4.195312 0 4.144531 -0.00390625 4.09375 -0.015625 C 4.039062 -0.0351562 4 -0.0625 3.96875 -0.09375 L 1.203125 -3.71875 L 1.203125 -0.3125 C 1.203125 -0.21875 1.171875 -0.140625 1.109375 -0.078125 C 1.054688 -0.0234375 0.984375 0 0.890625 0 C 0.796875 0 0.722656 -0.0234375 0.671875 -0.078125 C 0.617188 -0.140625 0.59375 -0.21875 0.59375 -0.3125 L 0.59375 -4.609375 C 0.59375 -4.703125 0.625 -4.78125 0.6875 -4.84375 C 0.75 -4.90625 0.828125 -4.9375 0.921875 -4.9375 C 0.972656 -4.9375 1.023438 -4.925781 1.078125 -4.90625 C 1.128906 -4.882812 1.171875 -4.859375 1.203125 -4.828125 L 3.96875 -1.203125 L 3.96875 -4.640625 C 3.96875 -4.722656 3.992188 -4.789062 4.046875 -4.84375 C 4.109375 -4.90625 4.1875 -4.9375 4.28125 -4.9375 Z M 4.28125 -4.9375 "/></g></g></g><g fill="#8d88b0" fill-opacity="1"><g transform="translate(62.636898, 43.026966)"><g><path d="M 4.390625 -0.4375 C 4.398438 -0.394531 4.40625 -0.347656 4.40625 -0.296875 C 4.40625 -0.203125 4.375 -0.125 4.3125 -0.0625 C 4.25 -0.0078125 4.175781 0.015625 4.09375 0.015625 C 4.019531 0.015625 3.957031 0 3.90625 -0.03125 C 3.851562 -0.0703125 3.8125 -0.128906 3.78125 -0.203125 L 3.34375 -1.25 L 1.15625 -1.25 L 0.734375 -0.203125 C 0.703125 -0.128906 0.660156 -0.0703125 0.609375 -0.03125 C 0.554688 0 0.5 0.015625 0.4375 0.015625 C 0.332031 0.015625 0.253906 -0.0078125 0.203125 -0.0625 C 0.148438 -0.113281 0.125 -0.179688 0.125 -0.265625 C 0.125 -0.285156 0.128906 -0.320312 0.140625 -0.375 L 1.9375 -4.75 C 1.96875 -4.820312 2.015625 -4.878906 2.078125 -4.921875 C 2.140625 -4.960938 2.207031 -4.976562 2.28125 -4.96875 C 2.351562 -4.96875 2.414062 -4.945312 2.46875 -4.90625 C 2.53125 -4.875 2.570312 -4.820312 2.59375 -4.75 Z M 1.421875 -1.890625 L 3.078125 -1.890625 L 2.25 -3.859375 Z M 1.421875 -1.890625 "/></g></g></g><g fill="#8d88b0" fill-opacity="1"><g transform="translate(69.192114, 43.026966)"><g><path d="M 1.28125 -0.34375 C 1.28125 -0.25 1.242188 -0.164062 1.171875 -0.09375 C 1.109375 -0.03125 1.03125 0 0.9375 0 C 0.832031 0 0.75 -0.03125 0.6875 -0.09375 C 0.625 -0.164062 0.59375 -0.25 0.59375 -0.34375 L 0.59375 -4.609375 C 0.59375 -4.703125 0.625 -4.78125 0.6875 -4.84375 C 0.75 -4.90625 0.832031 -4.9375 0.9375 -4.9375 C 1.03125 -4.9375 1.109375 -4.90625 1.171875 -4.84375 C 1.242188 -4.78125 1.28125 -4.703125 1.28125 -4.609375 Z M 1.28125 -0.34375 "/></g></g></g><g fill="#8d88b0" fill-opacity="1"><g transform="translate(73.084268, 43.026966)"><g><path d="M 3.3125 -0.65625 C 3.40625 -0.65625 3.484375 -0.625 3.546875 -0.5625 C 3.617188 -0.5 3.65625 -0.421875 3.65625 -0.328125 C 3.65625 -0.234375 3.617188 -0.15625 3.546875 -0.09375 C 3.484375 -0.03125 3.40625 0 3.3125 0 L 0.921875 0 C 0.828125 0 0.75 -0.03125 0.6875 -0.09375 C 0.625 -0.164062 0.59375 -0.25 0.59375 -0.34375 L 0.59375 -4.609375 C 0.59375 -4.703125 0.625 -4.78125 0.6875 -4.84375 C 0.75 -4.90625 0.832031 -4.9375 0.9375 -4.9375 C 1.03125 -4.9375 1.109375 -4.90625 1.171875 -4.84375 C 1.242188 -4.78125 1.28125 -4.703125 1.28125 -4.609375 L 1.28125 -0.65625 Z M 3.3125 -0.65625 "/></g></g></g><g fill="#8d88b0" fill-opacity="1"><g transform="translate(78.989614, 43.026966)"><g><path d="M 2.078125 0.078125 C 1.734375 0.078125 1.429688 0.03125 1.171875 -0.0625 C 0.910156 -0.164062 0.660156 -0.328125 0.421875 -0.546875 C 0.316406 -0.628906 0.265625 -0.722656 0.265625 -0.828125 C 0.265625 -0.910156 0.296875 -0.988281 0.359375 -1.0625 C 0.429688 -1.132812 0.507812 -1.171875 0.59375 -1.171875 C 0.675781 -1.171875 0.75 -1.144531 0.8125 -1.09375 C 1 -0.914062 1.191406 -0.785156 1.390625 -0.703125 C 1.585938 -0.617188 1.8125 -0.578125 2.0625 -0.578125 C 2.363281 -0.578125 2.613281 -0.644531 2.8125 -0.78125 C 3.019531 -0.914062 3.125 -1.085938 3.125 -1.296875 C 3.125 -1.546875 3.019531 -1.734375 2.8125 -1.859375 C 2.613281 -1.992188 2.3125 -2.109375 1.90625 -2.203125 C 1.414062 -2.304688 1.039062 -2.46875 0.78125 -2.6875 C 0.519531 -2.914062 0.390625 -3.226562 0.390625 -3.625 C 0.390625 -3.90625 0.460938 -4.148438 0.609375 -4.359375 C 0.753906 -4.566406 0.957031 -4.726562 1.21875 -4.84375 C 1.476562 -4.957031 1.769531 -5.015625 2.09375 -5.015625 C 2.382812 -5.015625 2.660156 -4.96875 2.921875 -4.875 C 3.179688 -4.78125 3.390625 -4.65625 3.546875 -4.5 C 3.660156 -4.40625 3.71875 -4.300781 3.71875 -4.1875 C 3.71875 -4.101562 3.6875 -4.03125 3.625 -3.96875 C 3.5625 -3.90625 3.484375 -3.875 3.390625 -3.875 C 3.328125 -3.875 3.273438 -3.890625 3.234375 -3.921875 C 3.109375 -4.046875 2.9375 -4.148438 2.71875 -4.234375 C 2.5 -4.316406 2.289062 -4.359375 2.09375 -4.359375 C 1.78125 -4.359375 1.53125 -4.289062 1.34375 -4.15625 C 1.15625 -4.03125 1.0625 -3.863281 1.0625 -3.65625 C 1.0625 -3.425781 1.15625 -3.25 1.34375 -3.125 C 1.53125 -3 1.804688 -2.894531 2.171875 -2.8125 C 2.535156 -2.738281 2.832031 -2.644531 3.0625 -2.53125 C 3.300781 -2.425781 3.484375 -2.273438 3.609375 -2.078125 C 3.742188 -1.890625 3.8125 -1.640625 3.8125 -1.328125 C 3.8125 -1.054688 3.734375 -0.8125 3.578125 -0.59375 C 3.421875 -0.382812 3.210938 -0.21875 2.953125 -0.09375 C 2.691406 0.0195312 2.398438 0.078125 2.078125 0.078125 Z M 2.078125 0.078125 "/></g></g></g></svg>