<svg xmlns="http://www.w3.org/2000/svg" xmlns:xlink="http://www.w3.org/1999/xlink" zoomAndPan="magnify" viewBox="0 0 177 48.75" preserveAspectRatio="xMidYMid meet" version="1.0"><defs><g/></defs><g fill="#e19ea8" fill-opacity="1"><g transform="translate(1.565124, 31.180994)"><g><path d="M 9.757812 11.3125 L 10.0625 11.3125 C 12.78125 10.753906 14.984375 5.226562 15.804688 2.503906 C 16.105469 1.640625 16.496094 1.035156 17.144531 0.386719 C 19.734375 -2.246094 22.324219 -4.835938 25.089844 -7.253906 C 25.433594 -7.558594 25.734375 -7.816406 26.039062 -8.117188 L 26.425781 -8.507812 C 26.644531 -8.808594 26.644531 -9.066406 26.425781 -9.285156 C 26.296875 -9.371094 26.167969 -9.414062 26.039062 -9.414062 C 25.910156 -9.414062 25.777344 -9.371094 25.648438 -9.285156 C 25.5625 -9.242188 25.476562 -9.15625 25.433594 -9.109375 C 25.347656 -9.023438 25.261719 -8.9375 25.21875 -8.894531 C 22.625 -6.605469 20.164062 -4.273438 17.746094 -1.8125 C 17.617188 -1.683594 17.488281 -1.511719 17.273438 -1.511719 L 17.144531 -1.511719 C 17.011719 -1.726562 17.054688 -1.988281 17.1875 -2.203125 C 18.265625 -6.648438 19.085938 -10.96875 19.949219 -15.457031 C 19.992188 -15.761719 20.035156 -15.933594 20.035156 -16.148438 C 20.035156 -16.410156 19.949219 -16.582031 19.820312 -16.625 C 19.648438 -16.667969 19.519531 -16.710938 19.476562 -16.710938 C 19.386719 -16.710938 19.257812 -16.667969 19.128906 -16.582031 C 18.828125 -16.277344 18.566406 -15.976562 18.308594 -15.632812 C 17.1875 -14.335938 16.0625 -13.039062 14.984375 -11.703125 C 13.859375 -10.363281 12.738281 -9.066406 11.617188 -7.773438 C 10.96875 -6.953125 8.765625 -4.707031 7.382812 -3.410156 C 5.914062 -2.03125 3.714844 -0.34375 2.503906 -0.34375 C 1.8125 -0.34375 1.382812 -0.90625 1.210938 -2.03125 C 1.121094 -2.332031 1.121094 -2.71875 1.164062 -3.152344 C 1.210938 -3.628906 1.253906 -4.058594 1.382812 -4.535156 C 2.761719 -10.363281 6.175781 -17.617188 10.925781 -21.332031 C 11.917969 -22.152344 13.300781 -22.929688 14.636719 -22.929688 C 15.503906 -22.929688 15.976562 -22.367188 16.0625 -21.203125 C 16.0625 -19.863281 15.761719 -18.742188 15.285156 -17.488281 C 14.636719 -15.976562 13.992188 -14.59375 13.171875 -13.214844 C 13.128906 -13.082031 13.039062 -12.953125 12.953125 -12.824219 C 12.867188 -12.695312 12.78125 -12.609375 12.738281 -12.480469 C 12.695312 -12.304688 12.738281 -12.175781 12.867188 -12.089844 C 12.910156 -12.046875 13.039062 -12.046875 13.171875 -12.046875 L 13.257812 -12.046875 C 14.507812 -12.609375 16.710938 -18.007812 17.054688 -19.820312 C 17.144531 -20.207031 17.1875 -20.640625 17.1875 -21.074219 C 17.1875 -21.503906 17.101562 -21.9375 16.96875 -22.324219 C 16.625 -23.492188 15.847656 -24.050781 14.679688 -24.050781 C 11.746094 -24.050781 8.851562 -21.289062 7.039062 -19 C 3.628906 -14.8125 1.554688 -10.019531 0.300781 -4.792969 C 0.128906 -3.972656 -0.0429688 -3.238281 0 -2.417969 C 0.128906 -0.863281 0.820312 0.820312 2.417969 0.820312 C 2.460938 0.820312 2.546875 0.820312 2.589844 0.820312 C 2.632812 0.777344 2.71875 0.777344 2.761719 0.777344 C 5.65625 0.433594 11.140625 -5.355469 12.996094 -7.601562 L 17.402344 -12.78125 C 17.53125 -12.910156 17.617188 -13.082031 17.746094 -13.257812 C 17.832031 -13.386719 18.007812 -13.472656 18.265625 -13.472656 C 18.394531 -13.171875 18.308594 -12.824219 18.265625 -12.523438 C 17.445312 -8.378906 16.582031 -4.359375 15.503906 -0.257812 C 15.328125 0.386719 14.984375 0.992188 14.507812 1.554688 C 12.953125 3.195312 8.851562 7.730469 8.636719 9.933594 C 8.550781 10.839844 8.9375 11.3125 9.757812 11.3125 Z M 10.191406 10.0625 C 10.105469 10.105469 10.019531 10.105469 9.933594 10.019531 C 9.886719 9.976562 9.84375 9.886719 9.84375 9.800781 C 9.886719 9.15625 10.234375 8.636719 10.578125 8.160156 C 10.925781 7.6875 11.269531 7.210938 11.660156 6.734375 C 12.046875 6.261719 12.394531 5.742188 12.78125 5.269531 C 12.910156 5.050781 13.082031 4.835938 13.257812 4.707031 C 13.429688 4.535156 13.558594 4.316406 13.644531 4.101562 C 13.859375 4.316406 13.859375 4.535156 13.730469 4.835938 C 13.171875 6.347656 12.480469 7.773438 11.484375 9.023438 C 11.097656 9.5 10.707031 9.84375 10.191406 10.0625 Z M 10.191406 10.0625 "/></g></g></g><g fill="#e19ea8" fill-opacity="1"><g transform="translate(25.22377, 31.180994)"><g><path d="M 0.214844 -3.714844 C 0.777344 -3.714844 1.511719 -4.316406 1.898438 -4.664062 C 2.980469 -5.65625 3.929688 -6.691406 4.921875 -7.859375 C 5.050781 -7.988281 5.226562 -8.160156 5.355469 -8.332031 C 5.484375 -8.507812 5.699219 -8.636719 6.003906 -8.765625 C 5.699219 -7.601562 5.441406 -6.476562 5.441406 -5.3125 C 5.441406 -4.492188 5.785156 -4.058594 6.519531 -4.058594 C 6.691406 -4.058594 6.824219 -4.058594 6.910156 -4.101562 C 8.722656 -4.40625 11.789062 -7.296875 13.039062 -8.550781 C 13.082031 -8.59375 13.171875 -8.679688 13.214844 -8.722656 C 13.257812 -8.765625 13.257812 -8.808594 13.300781 -8.851562 C 13.386719 -9.15625 13.34375 -9.371094 13.128906 -9.5 C 13.039062 -9.585938 12.953125 -9.628906 12.824219 -9.628906 C 12.78125 -9.628906 12.738281 -9.585938 12.609375 -9.542969 C 12.480469 -9.457031 12.351562 -9.371094 12.261719 -9.285156 C 12.132812 -9.15625 12.003906 -9.066406 11.875 -8.9375 C 11.484375 -8.636719 11.140625 -8.332031 10.839844 -8.03125 C 10.492188 -7.730469 10.148438 -7.382812 9.757812 -7.082031 C 9.242188 -6.605469 8.679688 -6.261719 8.160156 -5.914062 C 7.773438 -5.699219 7.382812 -5.527344 6.996094 -5.355469 C 6.953125 -5.3125 6.910156 -5.3125 6.824219 -5.3125 C 6.648438 -5.3125 6.5625 -5.441406 6.5625 -5.699219 C 6.5625 -7.558594 7.902344 -10.707031 8.722656 -12.351562 C 8.808594 -12.566406 8.894531 -12.738281 9.023438 -12.953125 C 9.109375 -13.128906 9.199219 -13.300781 9.285156 -13.515625 C 9.414062 -13.90625 9.371094 -14.207031 9.066406 -14.378906 C 8.9375 -14.421875 8.851562 -14.464844 8.808594 -14.464844 C 8.679688 -14.464844 8.507812 -14.378906 8.289062 -14.164062 C 8.160156 -14.035156 8.074219 -13.859375 7.988281 -13.730469 C 7.859375 -13.558594 7.773438 -13.386719 7.644531 -13.257812 C 7.382812 -12.910156 7.125 -12.566406 6.910156 -12.21875 C 6.648438 -11.875 6.390625 -11.53125 6.132812 -11.226562 C 5.960938 -11.011719 5.828125 -10.882812 5.742188 -10.882812 C 5.699219 -10.882812 5.570312 -10.96875 5.355469 -11.097656 C 4.921875 -11.441406 4.492188 -11.617188 4.058594 -11.617188 C 3.585938 -11.617188 3.109375 -11.441406 2.632812 -11.054688 C 2.332031 -10.839844 2.117188 -10.664062 1.988281 -10.492188 C 0.691406 -9.199219 -0.734375 -6.648438 -0.734375 -4.75 C -0.691406 -4.058594 -0.34375 -3.714844 0.214844 -3.714844 Z M 0.605469 -5.269531 C 0.605469 -5.3125 0.605469 -5.3125 0.5625 -5.3125 L 0.519531 -5.355469 C 0.863281 -7.210938 1.726562 -8.765625 3.066406 -9.933594 C 3.28125 -10.148438 3.800781 -10.449219 4.101562 -10.449219 C 4.316406 -10.449219 4.492188 -10.363281 4.707031 -10.234375 C 4.921875 -10.105469 4.964844 -9.886719 4.878906 -9.628906 C 4.835938 -9.5 4.75 -9.457031 4.707031 -9.414062 C 3.539062 -7.988281 2.375 -6.5625 0.992188 -5.398438 C 0.90625 -5.3125 0.777344 -5.269531 0.605469 -5.269531 Z M 0.605469 -5.269531 "/></g></g></g><g fill="#e19ea8" fill-opacity="1"><g transform="translate(35.671437, 31.180994)"><g><path d="M -0.0859375 2.03125 L 0.0429688 2.03125 C 0.300781 2.03125 0.476562 1.941406 0.519531 1.8125 C 0.5625 1.683594 0.605469 1.554688 0.648438 1.425781 C 0.691406 1.296875 0.734375 1.121094 0.777344 0.992188 C 2.074219 -2.9375 3.28125 -6.347656 6.648438 -8.894531 C 7.125 -9.199219 7.511719 -9.457031 8.03125 -9.628906 C 8.074219 -9.671875 8.160156 -9.671875 8.289062 -9.671875 C 8.59375 -9.671875 8.765625 -9.5 8.765625 -9.109375 C 8.808594 -8.246094 8.59375 -7.425781 8.378906 -6.605469 C 8.203125 -5.785156 7.773438 -5.136719 7.082031 -4.664062 C 5.914062 -3.757812 3.84375 -2.03125 3.496094 -0.605469 C 3.367188 -0.0429688 3.800781 0.433594 4.359375 0.386719 C 5.785156 0.257812 7.6875 -2.289062 8.289062 -3.496094 C 8.679688 -4.359375 9.242188 -4.921875 10.0625 -5.441406 C 11.660156 -6.433594 13.300781 -7.339844 14.984375 -8.160156 C 15.199219 -8.289062 15.457031 -8.378906 15.675781 -8.507812 C 15.890625 -8.636719 16.148438 -8.765625 16.367188 -8.894531 C 16.667969 -9.023438 16.753906 -9.285156 16.667969 -9.585938 C 16.625 -9.800781 16.453125 -9.886719 16.191406 -9.886719 C 16.0625 -9.886719 15.976562 -9.886719 15.933594 -9.84375 C 15.761719 -9.800781 15.632812 -9.714844 15.546875 -9.671875 C 13.859375 -8.851562 12.132812 -8.074219 10.535156 -7.082031 C 10.449219 -7.039062 10.363281 -6.953125 10.277344 -6.910156 C 10.191406 -6.824219 10.0625 -6.78125 9.933594 -6.78125 L 9.800781 -6.78125 C 9.671875 -6.910156 9.671875 -6.996094 9.714844 -7.125 C 9.757812 -7.210938 9.757812 -7.339844 9.757812 -7.46875 C 9.800781 -7.773438 9.84375 -8.074219 9.886719 -8.378906 C 9.933594 -8.679688 9.933594 -8.980469 9.886719 -9.285156 C 9.84375 -10.363281 9.414062 -10.882812 8.550781 -10.882812 C 8.332031 -10.882812 8.074219 -10.839844 7.816406 -10.753906 C 7.511719 -10.664062 7.210938 -10.535156 6.910156 -10.363281 C 6.605469 -10.191406 6.347656 -10.019531 6.046875 -9.84375 C 4.535156 -8.765625 3.410156 -7.425781 2.417969 -5.914062 C 2.332031 -5.785156 2.246094 -5.613281 2.160156 -5.441406 C 2.074219 -5.269531 1.898438 -5.136719 1.640625 -5.09375 C 1.855469 -7.773438 3.152344 -12.609375 4.40625 -14.855469 C 4.535156 -15.15625 4.664062 -15.414062 4.792969 -15.71875 C 4.921875 -15.976562 5.050781 -16.234375 5.183594 -16.539062 C 6.390625 -19.429688 7.601562 -22.28125 8.464844 -25.261719 C 8.59375 -25.648438 8.679688 -26.039062 8.722656 -26.511719 C 8.765625 -26.816406 8.722656 -27.074219 8.421875 -27.246094 C 8.378906 -27.289062 8.289062 -27.289062 8.203125 -27.289062 C 7.988281 -27.289062 7.859375 -27.203125 7.730469 -26.988281 C 7.382812 -26.511719 7.082031 -26.082031 6.78125 -25.5625 C 4.75 -21.117188 3.324219 -16.667969 1.988281 -12.003906 C 1.511719 -10.578125 1.121094 -9.15625 0.90625 -7.644531 C 0.691406 -6.21875 0.433594 -4.835938 0.214844 -3.453125 C 0 -2.074219 -0.214844 -0.691406 -0.34375 0.734375 C -0.386719 1.035156 -0.433594 1.296875 -0.433594 1.597656 C -0.433594 1.8125 -0.300781 1.941406 -0.0859375 2.03125 Z M -0.0859375 2.03125 "/></g></g></g><g fill="#e19ea8" fill-opacity="1"><g transform="translate(49.486605, 31.180994)"><g><path d="M -0.128906 0.734375 C 0.128906 0.734375 0.34375 0.605469 0.476562 0.386719 C 0.777344 -0.0859375 1.035156 -0.476562 1.253906 -0.949219 C 1.640625 -1.683594 1.988281 -2.375 2.332031 -3.066406 C 2.632812 -3.757812 2.980469 -4.449219 3.324219 -5.136719 C 3.84375 -6.132812 4.449219 -7.082031 5.269531 -7.902344 C 5.441406 -8.117188 5.613281 -8.332031 6.003906 -8.332031 C 6.132812 -8.160156 6.21875 -7.988281 6.304688 -7.816406 C 6.390625 -7.644531 6.519531 -7.46875 6.648438 -7.296875 C 7.125 -6.648438 7.6875 -6.347656 8.421875 -6.347656 C 9.628906 -6.347656 11.441406 -7.773438 12.261719 -8.59375 C 12.394531 -8.722656 12.523438 -8.894531 12.652344 -9.15625 C 12.738281 -9.328125 12.695312 -9.5 12.523438 -9.671875 C 12.394531 -9.757812 12.304688 -9.800781 12.175781 -9.800781 C 12.089844 -9.800781 12.046875 -9.800781 12.003906 -9.757812 C 11.789062 -9.628906 11.617188 -9.5 11.441406 -9.328125 C 10.707031 -8.722656 9.199219 -7.46875 8.421875 -7.46875 C 8.03125 -7.46875 7.6875 -7.730469 7.382812 -8.246094 C 7.296875 -8.378906 7.210938 -8.550781 7.167969 -8.765625 C 7.082031 -8.9375 6.996094 -9.109375 6.910156 -9.242188 C 6.691406 -9.585938 6.433594 -9.757812 6.089844 -9.757812 C 5.914062 -9.757812 5.742188 -9.714844 5.570312 -9.628906 C 4.230469 -8.808594 3.195312 -7.339844 2.503906 -6.003906 L 0.820312 -2.589844 L 0.777344 -2.632812 L 0.820312 -2.632812 C 0.605469 -3.109375 0.734375 -3.539062 0.863281 -4.015625 C 1.210938 -5.3125 1.683594 -6.648438 2.246094 -7.988281 C 2.632812 -8.851562 3.023438 -9.714844 3.367188 -10.578125 C 3.496094 -10.925781 3.585938 -11.226562 3.585938 -11.53125 C 3.628906 -11.746094 3.539062 -11.875 3.28125 -11.960938 L 3.152344 -11.960938 C 2.980469 -11.960938 2.851562 -11.917969 2.761719 -11.832031 C 2.632812 -11.660156 2.546875 -11.441406 2.417969 -11.226562 C 0.90625 -7.773438 -0.300781 -4.921875 -0.863281 -1.078125 C -0.90625 -0.863281 -0.90625 -0.691406 -0.90625 -0.519531 C -0.863281 -0.300781 -0.863281 -0.128906 -0.863281 0.0429688 C -0.820312 0.386719 -0.648438 0.605469 -0.34375 0.691406 C -0.300781 0.691406 -0.257812 0.691406 -0.257812 0.734375 C -0.214844 0.734375 -0.171875 0.734375 -0.128906 0.734375 Z M -0.128906 0.734375 "/></g></g></g><g fill="#e19ea8" fill-opacity="1"><g transform="translate(59.286678, 31.180994)"><g><path d="M 1.855469 -1.554688 C 3.023438 -1.554688 4.1875 -2.460938 5.007812 -3.195312 C 6.910156 -4.792969 8.421875 -6.691406 9.933594 -8.636719 C 10.0625 -8.765625 10.148438 -8.894531 10.191406 -9.109375 C 10.234375 -9.328125 10.191406 -9.5 10.019531 -9.628906 C 9.933594 -9.714844 9.84375 -9.757812 9.714844 -9.757812 C 9.628906 -9.757812 9.542969 -9.714844 9.5 -9.671875 C 9.285156 -9.5 9.066406 -9.328125 8.894531 -9.109375 C 8.550781 -8.722656 8.203125 -8.289062 7.902344 -7.902344 C 7.601562 -7.511719 7.253906 -7.082031 6.910156 -6.691406 C 5.914062 -5.527344 4.878906 -4.535156 3.714844 -3.539062 C 3.195312 -3.152344 2.71875 -2.851562 2.074219 -2.71875 C 1.597656 -2.71875 1.339844 -2.761719 1.210938 -3.238281 C 1.121094 -3.628906 1.078125 -4.015625 1.121094 -4.359375 C 1.382812 -6.390625 2.03125 -8.550781 2.761719 -10.449219 C 2.808594 -10.664062 2.761719 -10.839844 2.546875 -10.925781 C 2.417969 -10.96875 2.332031 -11.011719 2.246094 -11.011719 C 2.160156 -11.011719 2.03125 -10.96875 1.898438 -10.882812 C 0.777344 -9.757812 0.300781 -6.261719 0 -4.359375 C 0 -3.714844 0 -3.28125 0.171875 -2.808594 C 0.476562 -1.988281 1.035156 -1.554688 1.855469 -1.554688 Z M 2.980469 -12.566406 C 3.453125 -12.566406 3.886719 -12.996094 3.886719 -13.472656 C 3.84375 -13.949219 3.539062 -14.164062 3.023438 -14.164062 C 2.503906 -14.164062 2.246094 -13.90625 2.246094 -13.386719 C 2.289062 -12.867188 2.589844 -12.523438 2.980469 -12.566406 Z M 2.980469 -12.566406 "/></g></g></g><g fill="#e19ea8" fill-opacity="1"><g transform="translate(66.582705, 31.180994)"><g><path d="M 2.03125 -1.8125 C 5.007812 -1.8125 9.542969 -6.21875 11.617188 -8.421875 C 11.789062 -8.59375 11.917969 -8.722656 11.960938 -8.851562 C 12.089844 -9.066406 12.046875 -9.285156 11.832031 -9.5 C 11.746094 -9.585938 11.660156 -9.628906 11.53125 -9.628906 C 11.441406 -9.628906 11.3125 -9.585938 11.183594 -9.5 C 11.054688 -9.371094 10.925781 -9.242188 10.796875 -9.109375 C 10.664062 -8.980469 10.492188 -8.851562 10.363281 -8.722656 C 9.84375 -8.246094 9.328125 -7.773438 8.851562 -7.296875 C 8.332031 -6.824219 7.816406 -6.304688 7.296875 -5.828125 C 6.046875 -4.664062 4.058594 -3.28125 2.332031 -2.9375 C 1.511719 -2.9375 1.035156 -2.9375 0.863281 -3.929688 C 0.648438 -4.492188 0.605469 -4.964844 0.734375 -5.441406 C 0.777344 -5.65625 0.90625 -5.785156 1.078125 -5.828125 C 3.152344 -6.046875 5.871094 -8.59375 6.21875 -10.707031 C 6.347656 -11.703125 5.785156 -12.304688 4.921875 -12.304688 C 4.878906 -12.304688 4.792969 -12.304688 4.75 -12.304688 C 4.707031 -12.261719 4.621094 -12.261719 4.578125 -12.261719 C 2.289062 -11.917969 0.605469 -8.894531 -0.128906 -6.867188 C -0.300781 -6.21875 -0.476562 -5.613281 -0.433594 -4.878906 C -0.476562 -4.40625 -0.34375 -3.886719 -0.171875 -3.410156 C 0.128906 -2.332031 0.863281 -1.8125 2.03125 -1.8125 Z M 1.640625 -7.125 C 1.597656 -7.082031 1.511719 -7.125 1.382812 -7.167969 C 1.339844 -7.167969 1.296875 -7.253906 1.296875 -7.382812 C 1.769531 -8.722656 3.238281 -10.882812 4.664062 -11.097656 C 4.878906 -11.140625 5.007812 -11.054688 5.050781 -10.753906 C 5.050781 -9.371094 2.761719 -7.730469 1.640625 -7.125 Z M 1.640625 -7.125 "/></g></g></g><g fill="#e19ea8" fill-opacity="1"><g transform="translate(75.692007, 31.180994)"><g><path d="M 1.425781 2.289062 C 2.289062 2.289062 3.671875 0.820312 4.144531 0.0859375 C 5.050781 -1.121094 6.003906 -2.375 6.953125 -3.714844 C 7.859375 -5.007812 8.808594 -6.261719 9.714844 -7.425781 C 9.933594 -7.773438 10.191406 -8.160156 10.363281 -8.507812 C 10.492188 -8.636719 10.535156 -8.808594 10.535156 -9.023438 C 10.578125 -9.242188 10.535156 -9.414062 10.320312 -9.5 C 10.191406 -9.542969 10.105469 -9.585938 10.019531 -9.585938 C 9.714844 -9.585938 9.328125 -8.894531 9.199219 -8.679688 C 7.296875 -6.046875 5.09375 -2.980469 3.066406 -0.386719 C 2.851562 -0.0859375 2.03125 0.949219 1.640625 0.949219 C 1.425781 0.949219 1.296875 0.820312 1.253906 0.605469 C 0.949219 -0.257812 1.035156 -1.164062 1.164062 -2.03125 C 1.382812 -4.707031 1.988281 -9.414062 3.496094 -11.703125 C 5.484375 -14.679688 9.199219 -20.898438 9.976562 -24.355469 C 10.019531 -24.699219 9.976562 -25.046875 9.585938 -25.21875 C 9.414062 -25.261719 9.328125 -25.304688 9.285156 -25.304688 C 9.109375 -25.304688 8.894531 -25.21875 8.679688 -25.046875 C 5.699219 -22.066406 3.28125 -15.546875 1.988281 -11.617188 C 1.683594 -10.621094 1.425781 -9.757812 0.777344 -8.9375 C 0.605469 -8.765625 0.476562 -8.507812 0.648438 -8.289062 C 1.035156 -7.816406 0.863281 -7.296875 0.734375 -6.824219 C 0.34375 -4.964844 0.0429688 -3.152344 0 -0.949219 C 0 -0.820312 0 -0.605469 0 -0.34375 C 0 -0.0859375 0 0.171875 0.0429688 0.476562 C 0.171875 1.164062 0.605469 2.289062 1.425781 2.289062 Z M 4.921875 -15.503906 C 4.792969 -15.761719 4.835938 -16.0625 4.964844 -16.410156 C 5.785156 -18.523438 6.78125 -20.511719 7.945312 -22.453125 C 8.117188 -22.671875 8.246094 -22.800781 8.378906 -22.800781 C 8.421875 -22.800781 8.507812 -22.757812 8.636719 -22.714844 C 8.59375 -22.757812 8.59375 -22.800781 8.59375 -22.84375 C 8.59375 -22.800781 8.59375 -22.800781 8.636719 -22.757812 L 8.636719 -22.714844 L 7.46875 -20.382812 C 6.605469 -18.742188 5.785156 -17.101562 4.964844 -15.503906 C 4.964844 -15.546875 4.964844 -15.546875 4.964844 -15.546875 C 4.921875 -15.546875 4.921875 -15.546875 4.921875 -15.503906 Z M 4.921875 -15.503906 "/></g></g></g><g fill="#e19ea8" fill-opacity="1"><g transform="translate(83.33342, 31.180994)"><g><path d="M 1.425781 2.289062 C 2.289062 2.289062 3.671875 0.820312 4.144531 0.0859375 C 5.050781 -1.121094 6.003906 -2.375 6.953125 -3.714844 C 7.859375 -5.007812 8.808594 -6.261719 9.714844 -7.425781 C 9.933594 -7.773438 10.191406 -8.160156 10.363281 -8.507812 C 10.492188 -8.636719 10.535156 -8.808594 10.535156 -9.023438 C 10.578125 -9.242188 10.535156 -9.414062 10.320312 -9.5 C 10.191406 -9.542969 10.105469 -9.585938 10.019531 -9.585938 C 9.714844 -9.585938 9.328125 -8.894531 9.199219 -8.679688 C 7.296875 -6.046875 5.09375 -2.980469 3.066406 -0.386719 C 2.851562 -0.0859375 2.03125 0.949219 1.640625 0.949219 C 1.425781 0.949219 1.296875 0.820312 1.253906 0.605469 C 0.949219 -0.257812 1.035156 -1.164062 1.164062 -2.03125 C 1.382812 -4.707031 1.988281 -9.414062 3.496094 -11.703125 C 5.484375 -14.679688 9.199219 -20.898438 9.976562 -24.355469 C 10.019531 -24.699219 9.976562 -25.046875 9.585938 -25.21875 C 9.414062 -25.261719 9.328125 -25.304688 9.285156 -25.304688 C 9.109375 -25.304688 8.894531 -25.21875 8.679688 -25.046875 C 5.699219 -22.066406 3.28125 -15.546875 1.988281 -11.617188 C 1.683594 -10.621094 1.425781 -9.757812 0.777344 -8.9375 C 0.605469 -8.765625 0.476562 -8.507812 0.648438 -8.289062 C 1.035156 -7.816406 0.863281 -7.296875 0.734375 -6.824219 C 0.34375 -4.964844 0.0429688 -3.152344 0 -0.949219 C 0 -0.820312 0 -0.605469 0 -0.34375 C 0 -0.0859375 0 0.171875 0.0429688 0.476562 C 0.171875 1.164062 0.605469 2.289062 1.425781 2.289062 Z M 4.921875 -15.503906 C 4.792969 -15.761719 4.835938 -16.0625 4.964844 -16.410156 C 5.785156 -18.523438 6.78125 -20.511719 7.945312 -22.453125 C 8.117188 -22.671875 8.246094 -22.800781 8.378906 -22.800781 C 8.421875 -22.800781 8.507812 -22.757812 8.636719 -22.714844 C 8.59375 -22.757812 8.59375 -22.800781 8.59375 -22.84375 C 8.59375 -22.800781 8.59375 -22.800781 8.636719 -22.757812 L 8.636719 -22.714844 L 7.46875 -20.382812 C 6.605469 -18.742188 5.785156 -17.101562 4.964844 -15.503906 C 4.964844 -15.546875 4.964844 -15.546875 4.964844 -15.546875 C 4.921875 -15.546875 4.921875 -15.546875 4.921875 -15.503906 Z M 4.921875 -15.503906 "/></g></g></g><g fill="#e19ea8" fill-opacity="1"><g transform="translate(90.974832, 31.180994)"><g><path d="M 2.03125 -1.8125 C 5.007812 -1.8125 9.542969 -6.21875 11.617188 -8.421875 C 11.789062 -8.59375 11.917969 -8.722656 11.960938 -8.851562 C 12.089844 -9.066406 12.046875 -9.285156 11.832031 -9.5 C 11.746094 -9.585938 11.660156 -9.628906 11.53125 -9.628906 C 11.441406 -9.628906 11.3125 -9.585938 11.183594 -9.5 C 11.054688 -9.371094 10.925781 -9.242188 10.796875 -9.109375 C 10.664062 -8.980469 10.492188 -8.851562 10.363281 -8.722656 C 9.84375 -8.246094 9.328125 -7.773438 8.851562 -7.296875 C 8.332031 -6.824219 7.816406 -6.304688 7.296875 -5.828125 C 6.046875 -4.664062 4.058594 -3.28125 2.332031 -2.9375 C 1.511719 -2.9375 1.035156 -2.9375 0.863281 -3.929688 C 0.648438 -4.492188 0.605469 -4.964844 0.734375 -5.441406 C 0.777344 -5.65625 0.90625 -5.785156 1.078125 -5.828125 C 3.152344 -6.046875 5.871094 -8.59375 6.21875 -10.707031 C 6.347656 -11.703125 5.785156 -12.304688 4.921875 -12.304688 C 4.878906 -12.304688 4.792969 -12.304688 4.75 -12.304688 C 4.707031 -12.261719 4.621094 -12.261719 4.578125 -12.261719 C 2.289062 -11.917969 0.605469 -8.894531 -0.128906 -6.867188 C -0.300781 -6.21875 -0.476562 -5.613281 -0.433594 -4.878906 C -0.476562 -4.40625 -0.34375 -3.886719 -0.171875 -3.410156 C 0.128906 -2.332031 0.863281 -1.8125 2.03125 -1.8125 Z M 1.640625 -7.125 C 1.597656 -7.082031 1.511719 -7.125 1.382812 -7.167969 C 1.339844 -7.167969 1.296875 -7.253906 1.296875 -7.382812 C 1.769531 -8.722656 3.238281 -10.882812 4.664062 -11.097656 C 4.878906 -11.140625 5.007812 -11.054688 5.050781 -10.753906 C 5.050781 -9.371094 2.761719 -7.730469 1.640625 -7.125 Z M 1.640625 -7.125 "/></g></g></g><g fill="#8d88b0" fill-opacity="1"><g transform="translate(20.572564, 40.52926)"><g><path d="M 4.21875 -2.59375 C 4.3125 -2.59375 4.390625 -2.5625 4.453125 -2.5 C 4.515625 -2.4375 4.546875 -2.359375 4.546875 -2.265625 L 4.546875 -0.671875 C 4.546875 -0.546875 4.488281 -0.445312 4.375 -0.375 C 4.15625 -0.226562 3.914062 -0.113281 3.65625 -0.03125 C 3.40625 0.0390625 3.144531 0.078125 2.875 0.078125 C 2.394531 0.078125 1.957031 -0.0351562 1.5625 -0.265625 C 1.175781 -0.492188 0.867188 -0.800781 0.640625 -1.1875 C 0.410156 -1.570312 0.296875 -2 0.296875 -2.46875 C 0.296875 -2.9375 0.410156 -3.363281 0.640625 -3.75 C 0.867188 -4.144531 1.175781 -4.453125 1.5625 -4.671875 C 1.957031 -4.898438 2.394531 -5.015625 2.875 -5.015625 C 3.101562 -5.015625 3.328125 -4.988281 3.546875 -4.9375 C 3.765625 -4.882812 3.960938 -4.804688 4.140625 -4.703125 C 4.191406 -4.671875 4.234375 -4.628906 4.265625 -4.578125 C 4.296875 -4.535156 4.3125 -4.484375 4.3125 -4.421875 C 4.3125 -4.328125 4.28125 -4.242188 4.21875 -4.171875 C 4.15625 -4.109375 4.078125 -4.078125 3.984375 -4.078125 C 3.910156 -4.078125 3.847656 -4.09375 3.796875 -4.125 C 3.492188 -4.269531 3.1875 -4.34375 2.875 -4.34375 C 2.53125 -4.34375 2.21875 -4.257812 1.9375 -4.09375 C 1.65625 -3.925781 1.429688 -3.695312 1.265625 -3.40625 C 1.109375 -3.125 1.03125 -2.8125 1.03125 -2.46875 C 1.03125 -2.125 1.109375 -1.8125 1.265625 -1.53125 C 1.429688 -1.25 1.65625 -1.019531 1.9375 -0.84375 C 2.21875 -0.675781 2.53125 -0.59375 2.875 -0.59375 C 3.03125 -0.59375 3.195312 -0.613281 3.375 -0.65625 C 3.550781 -0.695312 3.703125 -0.75 3.828125 -0.8125 L 3.828125 -1.921875 L 2.96875 -1.921875 C 2.875 -1.921875 2.796875 -1.953125 2.734375 -2.015625 C 2.671875 -2.085938 2.640625 -2.171875 2.640625 -2.265625 C 2.640625 -2.359375 2.671875 -2.4375 2.734375 -2.5 C 2.796875 -2.5625 2.875 -2.59375 2.96875 -2.59375 Z M 4.21875 -2.59375 "/></g></g></g><g fill="#8d88b0" fill-opacity="1"><g transform="translate(27.49336, 40.52926)"><g><path d="M 3.3125 -0.65625 C 3.40625 -0.65625 3.484375 -0.625 3.546875 -0.5625 C 3.617188 -0.5 3.65625 -0.421875 3.65625 -0.328125 C 3.65625 -0.234375 3.617188 -0.15625 3.546875 -0.09375 C 3.484375 -0.03125 3.40625 0 3.3125 0 L 0.921875 0 C 0.828125 0 0.75 -0.03125 0.6875 -0.09375 C 0.625 -0.164062 0.59375 -0.25 0.59375 -0.34375 L 0.59375 -4.609375 C 0.59375 -4.703125 0.625 -4.78125 0.6875 -4.84375 C 0.75 -4.90625 0.832031 -4.9375 0.9375 -4.9375 C 1.03125 -4.9375 1.109375 -4.90625 1.171875 -4.84375 C 1.242188 -4.78125 1.28125 -4.703125 1.28125 -4.609375 L 1.28125 -0.65625 Z M 3.3125 -0.65625 "/></g></g></g><g fill="#8d88b0" fill-opacity="1"><g transform="translate(33.391205, 40.52926)"><g><path d="M 1.28125 -0.34375 C 1.28125 -0.25 1.242188 -0.164062 1.171875 -0.09375 C 1.109375 -0.03125 1.03125 0 0.9375 0 C 0.832031 0 0.75 -0.03125 0.6875 -0.09375 C 0.625 -0.164062 0.59375 -0.25 0.59375 -0.34375 L 0.59375 -4.609375 C 0.59375 -4.703125 0.625 -4.78125 0.6875 -4.84375 C 0.75 -4.90625 0.832031 -4.9375 0.9375 -4.9375 C 1.03125 -4.9375 1.109375 -4.90625 1.171875 -4.84375 C 1.242188 -4.78125 1.28125 -4.703125 1.28125 -4.609375 Z M 1.28125 -0.34375 "/></g></g></g><g fill="#8d88b0" fill-opacity="1"><g transform="translate(37.278416, 40.52926)"><g><path d="M 3.796875 -4.9375 C 3.890625 -4.9375 3.96875 -4.90625 4.03125 -4.84375 C 4.09375 -4.789062 4.125 -4.71875 4.125 -4.625 C 4.125 -4.519531 4.09375 -4.4375 4.03125 -4.375 C 3.96875 -4.320312 3.890625 -4.296875 3.796875 -4.296875 L 2.53125 -4.296875 L 2.53125 -0.34375 C 2.53125 -0.25 2.492188 -0.164062 2.421875 -0.09375 C 2.359375 -0.03125 2.273438 0 2.171875 0 C 2.066406 0 1.976562 -0.03125 1.90625 -0.09375 C 1.84375 -0.164062 1.8125 -0.25 1.8125 -0.34375 L 1.8125 -4.296875 L 0.5625 -4.296875 C 0.46875 -4.296875 0.382812 -4.328125 0.3125 -4.390625 C 0.25 -4.453125 0.21875 -4.53125 0.21875 -4.625 C 0.21875 -4.71875 0.25 -4.789062 0.3125 -4.84375 C 0.382812 -4.90625 0.46875 -4.9375 0.5625 -4.9375 Z M 3.796875 -4.9375 "/></g></g></g><g fill="#8d88b0" fill-opacity="1"><g transform="translate(43.648933, 40.52926)"><g><path d="M 3.875 -0.640625 C 3.976562 -0.640625 4.0625 -0.609375 4.125 -0.546875 C 4.1875 -0.492188 4.21875 -0.421875 4.21875 -0.328125 C 4.21875 -0.234375 4.179688 -0.15625 4.109375 -0.09375 C 4.046875 -0.03125 3.96875 0 3.875 0 L 0.65625 0 C 0.5625 0 0.476562 -0.03125 0.40625 -0.09375 C 0.332031 -0.164062 0.296875 -0.242188 0.296875 -0.328125 C 0.296875 -0.398438 0.320312 -0.472656 0.375 -0.546875 L 3.265625 -4.296875 L 0.890625 -4.296875 C 0.796875 -4.296875 0.71875 -4.328125 0.65625 -4.390625 C 0.59375 -4.453125 0.5625 -4.53125 0.5625 -4.625 C 0.5625 -4.71875 0.59375 -4.789062 0.65625 -4.84375 C 0.71875 -4.90625 0.796875 -4.9375 0.890625 -4.9375 L 3.921875 -4.9375 C 4.015625 -4.9375 4.097656 -4.90625 4.171875 -4.84375 C 4.242188 -4.78125 4.28125 -4.703125 4.28125 -4.609375 C 4.28125 -4.546875 4.253906 -4.476562 4.203125 -4.40625 L 1.328125 -0.640625 Z M 3.875 -0.640625 "/></g></g></g><g fill="#8d88b0" fill-opacity="1"><g transform="translate(50.224044, 40.52926)"><g/></g></g><g fill="#8d88b0" fill-opacity="1"><g transform="translate(54.195909, 40.52926)"><g><path d="M 4.28125 -4.9375 C 4.363281 -4.9375 4.429688 -4.90625 4.484375 -4.84375 C 4.546875 -4.789062 4.578125 -4.722656 4.578125 -4.640625 L 4.578125 -0.34375 C 4.578125 -0.25 4.546875 -0.164062 4.484375 -0.09375 C 4.421875 -0.03125 4.34375 0 4.25 0 C 4.195312 0 4.144531 -0.00390625 4.09375 -0.015625 C 4.039062 -0.0351562 4 -0.0625 3.96875 -0.09375 L 1.203125 -3.71875 L 1.203125 -0.3125 C 1.203125 -0.21875 1.171875 -0.140625 1.109375 -0.078125 C 1.054688 -0.0234375 0.984375 0 0.890625 0 C 0.796875 0 0.722656 -0.0234375 0.671875 -0.078125 C 0.617188 -0.140625 0.59375 -0.21875 0.59375 -0.3125 L 0.59375 -4.609375 C 0.59375 -4.703125 0.625 -4.78125 0.6875 -4.84375 C 0.75 -4.90625 0.828125 -4.9375 0.921875 -4.9375 C 0.972656 -4.9375 1.023438 -4.925781 1.078125 -4.90625 C 1.128906 -4.882812 1.171875 -4.859375 1.203125 -4.828125 L 3.96875 -1.203125 L 3.96875 -4.640625 C 3.96875 -4.722656 3.992188 -4.789062 4.046875 -4.84375 C 4.109375 -4.90625 4.1875 -4.9375 4.28125 -4.9375 Z M 4.28125 -4.9375 "/></g></g></g><g fill="#8d88b0" fill-opacity="1"><g transform="translate(61.377734, 40.52926)"><g><path d="M 4.390625 -0.4375 C 4.398438 -0.394531 4.40625 -0.347656 4.40625 -0.296875 C 4.40625 -0.203125 4.375 -0.125 4.3125 -0.0625 C 4.25 -0.0078125 4.175781 0.015625 4.09375 0.015625 C 4.019531 0.015625 3.957031 0 3.90625 -0.03125 C 3.851562 -0.0703125 3.8125 -0.128906 3.78125 -0.203125 L 3.34375 -1.25 L 1.15625 -1.25 L 0.734375 -0.203125 C 0.703125 -0.128906 0.660156 -0.0703125 0.609375 -0.03125 C 0.554688 0 0.5 0.015625 0.4375 0.015625 C 0.332031 0.015625 0.253906 -0.0078125 0.203125 -0.0625 C 0.148438 -0.113281 0.125 -0.179688 0.125 -0.265625 C 0.125 -0.285156 0.128906 -0.320312 0.140625 -0.375 L 1.9375 -4.75 C 1.96875 -4.820312 2.015625 -4.878906 2.078125 -4.921875 C 2.140625 -4.960938 2.207031 -4.976562 2.28125 -4.96875 C 2.351562 -4.96875 2.414062 -4.945312 2.46875 -4.90625 C 2.53125 -4.875 2.570312 -4.820312 2.59375 -4.75 Z M 1.421875 -1.890625 L 3.078125 -1.890625 L 2.25 -3.859375 Z M 1.421875 -1.890625 "/></g></g></g><g fill="#8d88b0" fill-opacity="1"><g transform="translate(67.924623, 40.52926)"><g><path d="M 1.28125 -0.34375 C 1.28125 -0.25 1.242188 -0.164062 1.171875 -0.09375 C 1.109375 -0.03125 1.03125 0 0.9375 0 C 0.832031 0 0.75 -0.03125 0.6875 -0.09375 C 0.625 -0.164062 0.59375 -0.25 0.59375 -0.34375 L 0.59375 -4.609375 C 0.59375 -4.703125 0.625 -4.78125 0.6875 -4.84375 C 0.75 -4.90625 0.832031 -4.9375 0.9375 -4.9375 C 1.03125 -4.9375 1.109375 -4.90625 1.171875 -4.84375 C 1.242188 -4.78125 1.28125 -4.703125 1.28125 -4.609375 Z M 1.28125 -0.34375 "/></g></g></g><g fill="#8d88b0" fill-opacity="1"><g transform="translate(71.811833, 40.52926)"><g><path d="M 3.3125 -0.65625 C 3.40625 -0.65625 3.484375 -0.625 3.546875 -0.5625 C 3.617188 -0.5 3.65625 -0.421875 3.65625 -0.328125 C 3.65625 -0.234375 3.617188 -0.15625 3.546875 -0.09375 C 3.484375 -0.03125 3.40625 0 3.3125 0 L 0.921875 0 C 0.828125 0 0.75 -0.03125 0.6875 -0.09375 C 0.625 -0.164062 0.59375 -0.25 0.59375 -0.34375 L 0.59375 -4.609375 C 0.59375 -4.703125 0.625 -4.78125 0.6875 -4.84375 C 0.75 -4.90625 0.832031 -4.9375 0.9375 -4.9375 C 1.03125 -4.9375 1.109375 -4.90625 1.171875 -4.84375 C 1.242188 -4.78125 1.28125 -4.703125 1.28125 -4.609375 L 1.28125 -0.65625 Z M 3.3125 -0.65625 "/></g></g></g><g fill="#8d88b0" fill-opacity="1"><g transform="translate(77.709678, 40.52926)"><g><path d="M 2.078125 0.078125 C 1.734375 0.078125 1.429688 0.03125 1.171875 -0.0625 C 0.910156 -0.164062 0.660156 -0.328125 0.421875 -0.546875 C 0.316406 -0.628906 0.265625 -0.722656 0.265625 -0.828125 C 0.265625 -0.910156 0.296875 -0.988281 0.359375 -1.0625 C 0.429688 -1.132812 0.507812 -1.171875 0.59375 -1.171875 C 0.675781 -1.171875 0.75 -1.144531 0.8125 -1.09375 C 1 -0.914062 1.191406 -0.785156 1.390625 -0.703125 C 1.585938 -0.617188 1.8125 -0.578125 2.0625 -0.578125 C 2.363281 -0.578125 2.613281 -0.644531 2.8125 -0.78125 C 3.019531 -0.914062 3.125 -1.085938 3.125 -1.296875 C 3.125 -1.546875 3.019531 -1.734375 2.8125 -1.859375 C 2.613281 -1.992188 2.3125 -2.109375 1.90625 -2.203125 C 1.414062 -2.304688 1.039062 -2.46875 0.78125 -2.6875 C 0.519531 -2.914062 0.390625 -3.226562 0.390625 -3.625 C 0.390625 -3.90625 0.460938 -4.148438 0.609375 -4.359375 C 0.753906 -4.566406 0.957031 -4.726562 1.21875 -4.84375 C 1.476562 -4.957031 1.769531 -5.015625 2.09375 -5.015625 C 2.382812 -5.015625 2.660156 -4.96875 2.921875 -4.875 C 3.179688 -4.78125 3.390625 -4.65625 3.546875 -4.5 C 3.660156 -4.40625 3.71875 -4.300781 3.71875 -4.1875 C 3.71875 -4.101562 3.6875 -4.03125 3.625 -3.96875 C 3.5625 -3.90625 3.484375 -3.875 3.390625 -3.875 C 3.328125 -3.875 3.273438 -3.890625 3.234375 -3.921875 C 3.109375 -4.046875 2.9375 -4.148438 2.71875 -4.234375 C 2.5 -4.316406 2.289062 -4.359375 2.09375 -4.359375 C 1.78125 -4.359375 1.53125 -4.289062 1.34375 -4.15625 C 1.15625 -4.03125 1.0625 -3.863281 1.0625 -3.65625 C 1.0625 -3.425781 1.15625 -3.25 1.34375 -3.125 C 1.53125 -3 1.804688 -2.894531 2.171875 -2.8125 C 2.535156 -2.738281 2.832031 -2.644531 3.0625 -2.53125 C 3.300781 -2.425781 3.484375 -2.273438 3.609375 -2.078125 C 3.742188 -1.890625 3.8125 -1.640625 3.8125 -1.328125 C 3.8125 -1.054688 3.734375 -0.8125 3.578125 -0.59375 C 3.421875 -0.382812 3.210938 -0.21875 2.953125 -0.09375 C 2.691406 0.0195312 2.398438 0.078125 2.078125 0.078125 Z M 2.078125 0.078125 "/></g></g></g></svg>