<?xml version="1.0" encoding="UTF-8"?>
<!-- Generator: Adobe Illustrator 25.2.3, SVG Export Plug-In . SVG Version: 6.00 Build 0)  -->
<svg xmlns="http://www.w3.org/2000/svg" xmlns:xlink="http://www.w3.org/1999/xlink" version="1.1" id="Capa_1" x="0px" y="0px" viewBox="0 0 512 512" style="enable-background:new 0 0 512 512;" xml:space="preserve" width="512" height="512">
<g>
	<g>
		<path stroke="white" fill="white" d="M478.968,204.694v-97.339v-8.258v-8.258C478.968,40.75,438.217,0,388.129,0S297.29,40.75,297.29,90.839v8.258v8.258    v97.339c-21.039,18.093-33.032,44.086-33.032,71.951V512H512V276.645C512,248.779,500.007,222.787,478.968,204.694z     M313.806,247.742h10.323c15.283,0,29.146-6.186,39.226-16.182v40.956c0,4.553-3.705,8.258-8.258,8.258    c-4.553,0-8.258-3.705-8.258-8.258v-8.258h-16.516v8.258c0,13.661,11.114,24.774,24.774,24.774    c13.66,0,24.774-11.113,24.774-24.774v-26.195c2.585,0.917,5.364,1.42,8.258,1.42s5.673-0.504,8.258-1.42v26.195    c0,13.661,11.114,24.774,24.774,24.774c13.66,0,24.774-11.113,24.774-24.774v-8.258h-16.516v8.258    c0,4.553-3.705,8.258-8.258,8.258c-4.553,0-8.258-3.705-8.258-8.258V231.56c10.08,9.995,23.943,16.182,39.226,16.182h10.323    v16.516c0,27.321-22.227,49.548-49.548,49.548h-49.548c-27.322,0-49.548-22.228-49.548-49.548V247.742z M388.129,132.129    c4.553,0,8.258,3.705,8.258,8.258v8.258h-16.516v-8.258C379.871,135.834,383.576,132.129,388.129,132.129z M396.387,181.677    h-16.516v-16.516h16.516V181.677z M379.871,206.452v-8.258h16.516v8.258v16.516c0,4.553-3.705,8.258-8.258,8.258    c-4.553,0-8.258-3.705-8.258-8.258V206.452z M412.903,182.266c25.279,3.631,45.329,23.681,48.961,48.96h-9.735    c-21.629,0-39.226-17.597-39.226-39.226V182.266z M420.16,136.551c11.374-11.375,25.908-18.445,41.622-20.39    c-3.841,25.019-23.784,44.8-48.879,48.406v-20.76L420.16,136.551z M396.387,107.355c0,4.553-3.705,8.258-8.258,8.258    c-4.553,0-8.258-3.705-8.258-8.258s3.705-8.258,8.258-8.258C392.682,99.097,396.387,102.802,396.387,107.355z M363.355,164.568    c-25.095-3.606-45.038-23.387-48.879-48.406c15.715,1.945,30.248,9.015,41.623,20.39l7.256,7.256v20.76H363.355z M363.355,192    c0,21.629-17.597,39.226-39.226,39.226h-9.735c3.633-25.279,23.681-45.329,48.961-48.96V192z M462.452,192.841    c-6.481-8.017-14.591-14.654-23.823-19.422c9.233-4.768,17.343-11.405,23.823-19.422V192.841z M388.129,16.516    c40.982,0,74.323,33.341,74.323,74.323v8.648c-20.389,1.886-39.311,10.726-53.97,25.385l-0.592,0.593    c-0.416-0.55-0.855-1.081-1.315-1.594c3.932-4.386,6.329-10.176,6.329-16.516c0-6.537-2.55-12.486-6.7-16.919l3.872-23.238    c0.908-5.442,5.57-9.391,11.086-9.391c4.553,0,8.258,3.705,8.258,8.258c0,4.553-3.705,8.258-8.258,8.258v16.516    c13.66,0,24.774-11.113,24.774-24.774S434.821,41.29,421.161,41.29c-13.623,0-25.138,9.754-27.378,23.192l-3.039,18.237    c-0.861-0.09-1.732-0.138-2.616-0.138s-1.756,0.049-2.616,0.139l-3.04-18.238c-2.239-13.438-13.754-23.192-27.376-23.192    c-13.66,0-24.774,11.113-24.774,24.774s11.114,24.774,24.774,24.774V74.323c-4.553,0-8.258-3.705-8.258-8.258    s3.705-8.258,8.258-8.258c5.516,0,10.178,3.949,11.085,9.39l3.873,23.239c-4.151,4.433-6.7,10.381-6.7,16.919    c0,6.34,2.397,12.13,6.329,16.516c-0.459,0.513-0.898,1.044-1.314,1.594l-0.591-0.591c-14.66-14.66-33.582-23.5-53.972-25.386    v-8.648C313.806,49.857,347.147,16.516,388.129,16.516z M337.63,173.419c-9.233,4.768-17.343,11.405-23.823,19.422v-38.844    C320.287,162.014,328.397,168.651,337.63,173.419z M495.484,495.484h-214.71V276.645c0-17.722,5.878-34.527,16.516-48.149v10.987    v8.258v16.516c0,36.428,29.636,66.065,66.065,66.065h49.548c36.428,0,66.065-29.636,66.065-66.065v-16.516v-8.258v-10.987    c10.638,13.622,16.516,30.427,16.516,48.149V495.484z"/>
		<path stroke="white" fill="white" d="M214.71,204.694V90.839C214.71,40.75,173.959,0,123.871,0S33.032,40.75,33.032,90.839v113.855    C11.993,222.787,0,248.779,0,276.645V512h247.742V276.645C247.742,248.779,235.749,222.787,214.71,204.694z M198.194,90.839    v173.419c0,18.317-9.999,34.333-24.819,42.908c0.027-0.538,0.044-1.078,0.044-1.618c0-7.621-2.607-14.865-7.242-20.645    c4.634-5.781,7.242-13.024,7.242-20.645c0-12.084-6.615-23.004-16.792-28.763c0.184-1.409,0.276-2.835,0.276-4.269    c0-8.355-3.125-15.991-8.258-21.814v-3.791c18.823-3.837,33.032-20.519,33.032-40.459v-24.774h-8.258    c-11.309,0-21.569,4.574-29.033,11.965c-4.05-20.218-10.943-39.642-20.416-57.757c14.815-6.49,24.675-21.185,24.675-37.805V33.032    h-8.258c-17.807,0-33.018,11.332-38.799,27.164c-7.537-9.478-15.91-18.378-25.07-26.596    c12.868-10.664,29.375-17.084,47.354-17.084C164.853,16.516,198.194,49.857,198.194,90.839z M82.02,310.773    c-13.607-5.011-24.426-15.831-29.438-29.438c1.701-0.365,3.444-0.561,5.224-0.561c13.66,0,24.774,11.113,24.774,24.774    C82.581,307.329,82.386,309.071,82.02,310.773z M57.806,264.258c-2.769,0-5.529,0.298-8.236,0.851    c-0.005-0.284-0.022-0.566-0.022-0.851V256c0-9.107,7.41-16.516,16.516-16.516c7.433,0,13.986,5.004,15.935,12.169l2.426,8.919    l8.589-3.41c1.942-0.771,3.989-1.162,6.082-1.162c9.107,0,16.516,7.41,16.516,16.516c0,2.836-0.734,5.634-2.122,8.094    l-3.842,6.805l6.584,4.212c4.782,3.06,7.639,8.264,7.639,13.922c0,2.927-0.783,5.765-2.225,8.258h-22.55    c-0.285,0-0.567-0.017-0.851-0.022c0.552-2.708,0.851-5.468,0.851-8.236C99.097,282.781,80.574,264.258,57.806,264.258z     M130.688,282.163c0.951-3.114,1.441-6.369,1.441-9.646c0-18.214-14.818-33.032-33.032-33.032c-1.436,0-2.86,0.092-4.269,0.275    c-5.759-10.176-16.679-16.791-28.763-16.791c-6.014,0-11.653,1.624-16.516,4.444v-29.218c4.612,0,8.892,1.858,12.053,5.233    l9.101,9.717l4.662-12.471c2.399-6.422,8.618-10.737,15.475-10.737c9.107,0,16.516,7.41,16.516,16.516    c0,0.321-0.012,0.64-0.031,0.956l-0.713,12.424l11.725-4.169c1.778-0.632,3.64-0.953,5.535-0.953    c9.107,0,16.516,7.41,16.516,16.516c0,2.093-0.391,4.14-1.162,6.085l-3.406,8.588l8.916,2.425    c7.165,1.949,12.169,8.501,12.169,15.934c0,5.544-2.764,10.69-7.394,13.767l-10.349,6.878l10.349,6.878    c4.63,3.076,7.394,8.223,7.394,13.767c0,2.79-0.681,5.456-1.98,7.846c-2.058,0.261-4.15,0.412-6.278,0.412h-9.312    c0.69-2.676,1.054-5.446,1.054-8.258C140.387,296.637,136.853,288.291,130.688,282.163z M115.613,80.017v-5.694    c0-10.766,6.904-19.95,16.516-23.359v5.827c0,10.574-6.654,19.848-16.449,23.332C115.657,80.087,115.635,80.052,115.613,80.017z     M148.645,188.52v-6.843c0-10.766,6.904-19.95,16.516-23.359v6.843C165.161,175.928,158.259,185.112,148.645,188.52z     M49.548,90.839c0-17.061,5.793-32.787,15.495-45.345c19.743,17.611,35.559,38.645,46.865,61.861h-4.553    c-22.767,0-41.29,18.523-41.29,41.29v8.258h29.133c11.721,0,22.557-4.856,30.236-13.147c4.395,16.629,6.695,33.935,6.695,51.567    v3.915c-2.641-0.682-5.408-1.046-8.258-1.046c-0.348,0-0.695,0.005-1.041,0.017c-3.671-14.239-16.622-24.791-31.992-24.791    c-10.073,0-19.458,4.658-25.632,12.221c-4.775-2.57-10.161-3.963-15.658-3.963V90.839z M118.767,123.871l-1.41,2.821    c-4.224,8.448-12.715,13.695-22.159,13.695H83.996c3.409-9.613,12.593-16.516,23.359-16.516H118.767z M231.226,495.484H16.516    V276.645c0-17.722,5.878-34.527,16.516-48.149v35.762c0,36.428,29.636,66.065,66.065,66.065h49.548    c36.428,0,66.065-29.636,66.065-66.065v-35.762c10.638,13.622,16.516,30.427,16.516,48.149V495.484z"/>
	</g>
</g>















</svg>
