<svg id="_x31__px" height="512" viewBox="0 0 24 24" width="512" xmlns="http://www.w3.org/2000/svg">
<path stroke="white" fill="white" d="m.5 24c-.276 0-.5-.224-.5-.5v-6.5c0-1.897.785-3.738 2.154-5.051.199-.19.516-.184.707.015.19.199.184.516-.016.707-1.172 1.125-1.845 2.703-1.845 4.329v6.5c0 .276-.224.5-.5.5z"/>
<path stroke="white" fill="white" d="m15.5 24c-.276 0-.5-.224-.5-.5v-6.5c0-1.598-.623-3.106-1.756-4.248-.221-.165-.289-.499-.124-.72s.454-.289.679-.123c.063.047.111.094.157.141 1.317 1.328 2.044 3.087 2.044 4.95v6.5c0 .276-.224.5-.5.5z"/>
<path stroke="white" fill="white" d="m10.5 21h-5c-1.93 0-3.5-1.57-3.5-3.5v-6.5c0-3.096 2.411-5.718 5.489-5.969.288-.022.517.182.539.458.022.275-.183.517-.457.539-2.563.209-4.571 2.393-4.571 4.972v6.5c0 1.378 1.121 2.5 2.5 2.5h5c1.379 0 2.5-1.122 2.5-2.5v-6c0-.276.224-.5.5-.5s.5.224.5.5v6c0 1.93-1.57 3.5-3.5 3.5z"/>
<path stroke="white" fill="white" d="m21.5 15c-.669 0-1.297-.26-1.769-.733l-9.999-10c-.472-.471-.732-1.099-.732-1.767 0-1.378 1.121-2.5 2.5-2.5.669 0 1.297.26 1.769.733l9.999 10c.472.471.732 1.099.732 1.767 0 1.378-1.121 2.5-2.5 2.5zm-10-14c-.827 0-1.5.673-1.5 1.5 0 .401.156.777.439 1.06l10 10c.284.284.66.44 1.061.44.827 0 1.5-.673 1.5-1.5 0-.401-.156-.777-.439-1.06l-10-10c-.284-.284-.66-.44-1.061-.44z"/>
<path stroke="white" fill="white" d="m13.5 5c-.128 0-.256-.049-.354-.146l-1-1c-.195-.195-.195-.512 0-.707s.512-.195.707 0l1 1c.195.195.195.512 0 .707-.097.097-.225.146-.353.146z"/>
<path stroke="white" fill="white" d="m20.5 12c-.128 0-.256-.049-.354-.146l-1-1c-.195-.195-.195-.512 0-.707s.512-.195.707 0l1 1c.195.195.195.512 0 .707-.097.097-.225.146-.353.146z"/>
<path stroke="white" fill="white" d="m17 8.5c-.128 0-.256-.049-.354-.146l-1-1c-.195-.195-.195-.512 0-.707s.512-.195.707 0l1 1c.195.195.195.512 0 .707-.097.097-.225.146-.353.146z"/></svg>